<?xml version="1.0" encoding="utf-8"?>
<!-- Generator: Adobe Illustrator 26.1.0, SVG Export Plug-In . SVG Version: 6.00 Build 0)  -->
<svg version="1.1" id="Camada_1" xmlns="http://www.w3.org/2000/svg" xmlns:xlink="http://www.w3.org/1999/xlink" x="0px" y="0px"
	 viewBox="0 0 1920 1080" style="enable-background:new 0 0 1920 1080;" xml:space="preserve">
<g>
	<path d="M477.83,769.16c17.02,25.31,32.5,50.9,50.5,74.59c46.56,61.26,111.41,85.84,185.95,88.9
		c62.64,2.58,123.83-8.05,184.53-22.04c88.04-20.29,175.83-41.67,264.04-61.18c54.46-12.04,109.69-19.85,165.79-16.98
		c37.07,1.9,73.51,7.6,106.49,25.8c11.41,6.29,22.04,14.89,31.12,24.29c11.88,12.3,13.52,26.48,7.21,37.68
		c-6.82,12.09-21.85,18.81-37.74,16.11c-7.55-1.28-15.15-3.14-22.27-5.93c-66.24-26.02-134.3-27.99-203.68-16.98
		c-77.73,12.33-152.07,37.46-227.38,58.96c-83.32,23.79-167,45.81-254.59,45.79c-74.13-0.02-142.34-18.89-201.66-64.99
		c-36.68-28.51-65.26-64.25-90.56-102.83c-5.86-8.94-11.45-18.06-19.92-26.98c0,3.76,0.02,7.52,0,11.28
		c-0.17,28.72,1.11,57.55-0.91,86.14c-2.11,29.85-25.63,44.85-54.77,37.42c-13.25-3.38-22.27-12.36-24.83-25.29
		c-3.82-19.27-7.28-38.89-7.91-58.46c-3.12-97.48,2.97-194.7,10.12-291.86c1.65-22.38,12.35-36.67,33.88-43.08
		c35.86-10.68,72.08-15.13,109.06-6.59c46.44,10.73,74.83,44,78.05,91.61c3.78,55.87-15.89,100.7-62.87,132.49
		C490.58,760.35,485.72,763.73,477.83,769.16z M417.04,704.89c6.02-1.2,11.52-1.58,16.48-3.42c27.91-10.32,43.3-35.89,40.84-65.5
		c-2.29-27.58-30.68-35.82-53.56-25.48c-1.78,0.81-3.59,3.89-3.6,5.93C416.97,645.37,417.04,674.31,417.04,704.89z"/>
	<path d="M116.92,769.01c3.93,24.03,7.41,48.15,12.06,72.03c1.6,8.23,5.41,16.28,9.44,23.76c16.52,30.69,52.87,33.33,73.1,4.65
		c6.97-9.88,10.77-22.17,15.11-33.69c3.16-8.37,4.18-17.55,7.3-25.94c6.17-16.66,20.91-25.39,38.44-23.73
		c15.99,1.52,26.39,11.03,29.24,29.25c9.84,62.95-17.49,133.98-87.1,160.76c-67.05,25.79-133.09,1.26-169.38-62.32
		c-18.86-33.05-27.92-69.1-30.74-106.63c-5.7-75.92,3.14-149.21,44.48-215.32c23.94-38.28,55.72-66.88,101.54-77.07
		c82.9-18.44,147.08,31.44,147.31,116.47c0.05,19.81-3.61,40.23-9.18,59.3c-7.46,25.52-28.05,37.79-53.96,36.44
		c-25.41-1.32-41.34-18.34-40-43.75c0.45-8.47,3.01-16.82,4.5-25.24c1.64-9.25,4.32-18.51,4.47-27.79
		c0.31-19.13-14.73-29.98-32.09-21.8c-10.28,4.84-20.11,13.42-26.74,22.74c-21.99,30.92-29.21,67.18-33.41,104.1
		c-1.26,11.07-1.59,22.24-2.35,33.36C118.28,768.73,117.6,768.87,116.92,769.01z"/>
	<path d="M1778.11,830.33c-39.17-2.63-74.92-11.12-101.44-41.51c-26.55-30.43-30.56-85.93-9.2-119.42
		c12.01-18.84,32.32-26.59,50.79-19.4c15.95,6.21,22.76,19.63,18.21,36.08c-1.03,3.71-2.51,7.3-3.52,11.01
		c-5.78,21.32,6.01,42.37,27,48.32c23.53,6.68,44.74-4.03,50.91-26.27c6.4-23.1,0.49-43.87-16.06-60.37
		c-13.58-13.54-29.33-24.91-44.08-37.29c-18.35-15.4-38.21-29.37-54.68-46.57c-33.24-34.73-38.32-76.91-23.1-120.88
		c14.7-42.46,47.8-64.47,90.87-72.25c33.02-5.96,63.99,0.15,92.17,18.55c33.69,21.99,46.97,65.97,31.19,102.05
		c-11.06,25.29-36.68,34.06-57.92,19.6c-11.64-7.92-16.77-19-14.93-33.21c2.39-18.52-1.65-25.73-16.11-29.35
		c-17.85-4.47-35.39,2.97-40.92,17.87c-5.77,15.57-2.26,30.37,8.41,41.98c10.03,10.92,22.16,20.03,33.97,29.16
		c17.96,13.87,37.33,26.01,54.53,40.72c52.39,44.84,67.64,116.03,38.06,174.69C1868.48,811.03,1826.68,827.37,1778.11,830.33z"/>
	<path d="M655.02,265.29c18.45-2.33,35.74-5.02,53.13-6.52c9.71-0.84,19.69-0.46,29.38,0.73c10.81,1.33,19.45,6.69,22.49,18.19
		c3.14,11.86,0.66,22.96-8.96,30.21c-9.08,6.84-19.47,12.61-30.13,16.52c-17.23,6.32-35.16,10.74-54.34,16.42
		c1.39,11.4,3.68,23.12,4.06,34.9c0.48,14.88,1.1,30.1-1.43,44.64c-2.85,16.38-15.57,24.31-34.18,25.37
		c-17.5,0.99-28.47-4.85-33.99-21.25c-5.03-14.94-7.75-30.67-11.28-46.1c-1.51-6.59-2.49-13.31-4.05-21.85
		c-22.44,3.2-43.96,6.02-65.34,9.68c-2.28,0.39-4.59,5.48-5.39,8.75c-5.21,21.21-9.17,42.77-15.19,63.74
		c-5.78,20.12-18.76,28.48-39.27,28.21c-21.96-0.29-32.63-10.77-31.56-32.83c0.81-16.67,3.31-33.26,5.06-49.89
		c0.31-2.94,0.62-5.88,1.04-9.93c-12.95-2.02-25.6-3.53-38.05-6.04c-21.7-4.39-32.68-13.53-33.42-26.78
		c-0.77-13.78,8.46-23.84,29.94-30.34c13.47-4.08,27.33-7.75,41.27-9.17c10.86-1.1,13.73-5.93,16-15.55
		c10.71-45.4,21.71-90.76,34-135.76c3.78-13.83,11.12-26.93,18.28-39.53c21.98-38.65,88.45-47.53,109.91,4.69
		c15.52,37.77,24.5,78.25,35.93,117.65C651.76,243.23,652.83,253.55,655.02,265.29z M556.7,189.61c-1.42-0.06-2.84-0.12-4.26-0.18
		c-7.11,31.23-14.22,62.45-21.83,95.89c15.5-2.33,28.3-4.26,43.15-6.49C567.86,248.03,562.28,218.82,556.7,189.61z"/>
	<path d="M1651.33,565.01c-3.06,72.58-10.92,131.03-42.83,183.19c-22.07,36.09-52.58,59.76-97.31,58.75
		c-36.73-0.82-63.39-18.38-80.87-50.29c-13.48-24.6-19-51.52-20.1-79.1c-2.27-57,8.73-111.91,30.89-164.23
		c16.16-38.16,41.16-68.21,83.94-78.57c52.89-12.81,99.4,12.25,114.55,64.59C1646.9,524.59,1649,551.34,1651.33,565.01z
		 M1572.05,576.62c-1.93-16.07-2.38-32.51-6.19-48.13c-4.38-17.96-22.26-21.37-34.05-6.83c-6.03,7.44-10.5,16.73-13.59,25.88
		c-15.08,44.59-22.1,90.57-20.32,137.65c0.36,9.67,2.28,19.72,5.71,28.74c5.99,15.73,21.31,18.24,32.4,5.54
		c5.23-5.99,9.37-13.37,12.38-20.78C1564.2,659.65,1568.76,618.48,1572.05,576.62z"/>
	<path d="M1294.3,651.01c5.04-21.96,9.91-43.95,15.14-65.87c10.95-45.84,21.96-91.66,33.26-137.41c1.84-7.43,4.85-14.68,8.14-21.62
		c11.01-23.19,36.56-31.89,59.67-20.67c14.25,6.92,21.76,19.97,18.25,37.4c-7.18,35.68-14.74,71.35-24.01,106.53
		c-16.27,61.73-33.77,123.13-51.22,184.54c-3.5,12.31-8.76,24.17-13.78,35.99c-10.01,23.59-28.21,34.66-53.69,34.06
		c-24.48-0.58-39.58-14.51-45.77-36.48c-14.61-51.9-29.14-103.91-40.82-156.52c-8.9-40.09-13.48-81.14-19.68-121.81
		c-1.02-6.72-1.17-13.74-0.52-20.51c2-21.05,14.16-33.4,34.08-35.44c22.47-2.3,36.27,5.19,41.47,27.18
		c8.37,35.42,14.49,71.37,21.26,107.16c5.24,27.73,10.02,55.55,15,83.32C1292.15,650.91,1293.23,650.96,1294.3,651.01z"/>
	<path d="M829.34,789.3c-17.3,2.66-34.31,4.66-50.96,8.3c-3.73,0.82-7.91,6.95-8.98,11.35c-4.89,19.95-7.55,40.51-13.3,60.18
		c-5.9,20.21-22.23,28.73-43.08,25.66c-12.86-1.9-22.1-8.62-23.74-21.62c-1.81-14.37-3.12-29.15-1.81-43.49
		c7.4-81.31,20.8-161.56,45.91-239.47c4.18-12.98,9.38-25.89,16.01-37.77c15.25-27.31,51.81-41.13,79.98-27.9
		c11.69,5.49,23.51,17.64,28.29,29.57c12.7,31.65,24.43,64.24,31.36,97.54c10.37,49.85,16.63,100.57,23.89,151.03
		c1.69,11.76,1.27,24.03,0.23,35.93c-1.76,20.14-12.43,30.59-31.56,32.9c-20.25,2.45-31.42-3.89-37.83-24.34
		C838.02,828.86,834.38,809.9,829.34,789.3z M820.72,714.16c-6.11-29.83-11.83-57.74-17.56-85.66c-1.44,0.02-2.89,0.04-4.33,0.06
		c-5.78,29.77-11.55,59.54-17.71,91.3C795.21,717.83,806.47,716.21,820.72,714.16z"/>
	<path d="M954.58,544.57c-18.97,0-36.44,0.16-53.91-0.04c-30.92-0.35-45.58-9.94-48.48-31.38c-3.02-22.37,8.09-37.1,39.48-42.91
		c60.16-11.14,120.78-19.91,181.29-29.1c13.92-2.11,28.18-2.49,42.29-2.73c21.78-0.37,33.04,6.37,36.81,20.81
		c4.46,17.09-3.38,38.66-19.73,46.3c-14.56,6.81-30.56,10.81-46.21,14.96c-12.8,3.4-25.95,5.9-39.1,7.45
		c-8.98,1.06-10.76,4.94-10.81,13.29c-0.39,68.21-0.78,136.43-2.26,204.62c-0.52,23.93-2.72,48.02-6.62,71.64
		c-4.03,24.48-18.88,35.64-41.59,35.29c-19.62-0.3-33.14-12.03-35.63-36.73c-3.26-32.34-5.21-65.07-4.31-97.53
		c1.52-54.87,5.72-109.66,8.76-164.48C954.74,550.65,954.58,547.28,954.58,544.57z"/>
	<path d="M293.4,319.77c-4.33,48.74-7.08,91.56-12.29,134.07c-3.25,26.51-17.27,37.89-40.33,38.2
		c-24.71,0.33-39.5-11.44-44.82-36.98c-10.25-49.15-9.06-99.05-7.64-148.76c0.84-29.47,3.65-59.05,8.07-88.21
		c3.53-23.28,18.23-34.4,39.45-34.85c22.57-0.49,40.92,10.46,44.81,32.59C286.99,251.98,289.76,288.76,293.4,319.77z"/>
	<path d="M1078.23,670.41c2.44-31.63,4.38-63.3,7.55-94.86c1.51-15.05,8.08-27.82,23.21-34.56c25.37-11.28,47.92-2.35,53.67,24.75
		c5.57,26.28,9.12,53.39,9.77,80.22c1.05,43.68,0.38,87.52-2.18,131.13c-1.87,31.79-16.43,45.73-43.18,48.42
		c-18.37,1.84-30.04-4.21-35.36-22.47c-5.24-17.97-9.12-36.74-10.38-55.38c-1.73-25.62-0.43-51.44-0.43-77.17
		C1080.01,670.47,1079.12,670.44,1078.23,670.41z"/>
	<path d="M670.45,712.83c-4.47,39.68-8.85,81.87-14.26,123.92c-1.17,9.09-5.01,18.28-9.5,26.38c-6.96,12.56-18.59,18.87-33.18,17.95
		c-15.21-0.95-26.31-9.2-31-23.26c-4.16-12.47-7.01-25.78-7.84-38.89c-3.9-61.57,0.81-122.61,14.71-182.75
		c5.13-22.21,16.87-30.64,38.33-30.09c20.64,0.53,32.74,9.07,35.82,29.7C667.19,660.32,668.1,685.23,670.45,712.83z"/>
	<path d="M1116.86,341.53c-1.04,17.8-1.52,32.18-2.84,46.49c-0.96,10.41-3.09,20.8-14.94,24.76c-18.12,6.05-30.68-1.53-30.62-20.82
		c0.16-57.06,1.11-114.13,3.03-171.15c0.24-6.98,6.69-16.78,12.95-19.96c21.39-10.86,44.88-14.89,68.7-10.2
		c36.17,7.11,51.65,38.61,39.29,77.94c-5.45,17.34-12.49,25.79-37.67,44.58c7.05,11.26,14.26,22.66,21.36,34.14
		c4.51,7.29,9.19,14.49,13.18,22.06c5.3,10.06,6.04,19.75-4.74,27.18c-10.09,6.97-23.64,6.21-31.3-3.46
		c-9.56-12.07-17.68-25.27-26.47-37.94C1124.25,351.48,1121.53,347.93,1116.86,341.53z M1115.67,283.27
		c18.02-3.48,29.6-11.79,32.79-27.56c1.41-6.95,0.25-17.34-4.15-21.91c-8.04-8.35-19.39-5.51-28.64-1.76
		C1115.67,249.26,1115.67,265.34,1115.67,283.27z"/>
	<path d="M1003.14,374.03c-2.12-0.53-2.54-0.74-2.94-0.72c-30.06,1.2-30.32,1.53-35.32,30.49c-1.23,7.14-2.74,14.37-5.25,21.13
		c-4.15,11.16-15.24,16.59-27.03,14.18c-11.74-2.4-14.53-11.02-13.98-21.26c3.31-62.32,14.52-123.22,33.75-182.58
		c4.16-12.84,12.47-22.2,26.47-25.52c21.29-5.05,36.56,0.61,43.07,21.51c9.37,30.12,16.6,61.06,22.37,92.1
		c4.68,25.16,6.24,50.95,8.42,76.52c0.91,10.7-3.65,19.31-14.84,22.76c-14.06,4.34-24.66-1.27-28.35-15.8
		C1006.79,396.12,1005.25,385.11,1003.14,374.03z M999.92,328.8c-3.96-18.15-7.64-35.01-11.33-51.86c-1.05,0.03-2.11,0.06-3.16,0.09
		c-3.48,18.06-6.96,36.12-10.8,56.09C984.26,331.48,991.19,330.29,999.92,328.8z"/>
	<path d="M1286.2,335.01c-10.21,1.75-19.24,2.47-27.63,5.16c-3.24,1.04-6.17,6.21-7.28,10.07c-2.59,9.02-3.24,18.61-6.03,27.54
		c-4.01,12.83-13.68,18.45-25.45,16.31c-12.8-2.32-16.36-11.16-15.75-22.67c3.19-59.87,15.14-118.05,34.24-174.78
		c6.04-17.93,20.07-24.63,37.94-24.96c16.65-0.31,25.97,9.45,31.5,23.74c20.72,53.52,27.99,109.39,27.7,166.38
		c-0.07,13.11-8.56,20.07-21.39,21.14c-12.67,1.05-19.22-5.51-21.78-17C1290.11,356.36,1288.46,346.67,1286.2,335.01z
		 M1283.15,290.44c-3.81-17-7.3-32.56-10.79-48.12c-1.13,0.15-2.27,0.29-3.4,0.44c-2.93,16.33-5.87,32.67-9.07,50.51
		C1268.86,292.18,1274.97,291.43,1283.15,290.44z"/>
	<path d="M792.3,351.81c0-30.85-0.16-61.71,0.06-92.56c0.12-16.85,8.76-28.43,25.27-30.79c18.86-2.7,38.3-5.13,57.11-3.43
		c22.95,2.07,36.53,17.58,41.1,39.97c9.92,48.57-18.12,93.19-66.4,104.37c-7.94,1.84-9.14,5.44-9.16,12.26
		c-0.05,17.58,0.16,35.22-1.29,52.71c-1.59,19.17-19.95,28.57-36.76,19.91c-10.37-5.34-12.01-15.26-12.16-25.23
		c-0.37-25.73-0.12-51.47-0.12-77.21C790.74,351.81,791.52,351.81,792.3,351.81z M838.33,324.64c9.98-4.91,16.91-7.1,22.34-11.25
		c10.83-8.26,14.1-20.07,11.95-33.28c-1.87-11.49-10.59-16.57-23.86-15.92c-13.01,0.64-10.41,9.58-10.42,17.42
		C838.31,294.43,838.33,307.23,838.33,324.64z"/>
	<path d="M190.67,113.52c0.14-28.8,23.94-52.12,52.76-51.68c28.46,0.43,49.29,21.74,48.99,50.12c-0.31,29.5-23.33,52.2-52.47,51.74
		C211.84,163.27,190.54,141.58,190.67,113.52z"/>
	<path d="M679.37,533.48c-0.36,28.29-23.71,51.42-51.9,51.41c-28.22-0.01-49.7-21.52-49.64-49.71
		c0.06-29.48,22.86-51.83,52.54-51.53C659.21,483.95,679.73,504.81,679.37,533.48z"/>
	<path d="M360.2,393.68c22.21,0.19,39.47,18.61,39.24,41.88c-0.24,24.93-20.16,45.38-44.37,45.57
		c-23.42,0.18-41.05-18.34-41.03-43.09C314.06,412.35,333.74,393.45,360.2,393.68z"/>
</g>
</svg>
