<?xml version="1.0" encoding="utf-8"?>
<!-- Generator: Adobe Illustrator 26.1.0, SVG Export Plug-In . SVG Version: 6.00 Build 0)  -->
<svg version="1.1" id="Camada_1" xmlns="http://www.w3.org/2000/svg" xmlns:xlink="http://www.w3.org/1999/xlink" x="0px" y="0px"
	 viewBox="0 0 800 600" style="enable-background:new 0 0 800 600;" xml:space="preserve">
<path d="M5,324.1c0.7,0.2,1.1,0.9,1.3,1.5c-0.5,0.1-1.1,0.1-1.6,0.2C4.7,325.5,4.6,325,5,324.1z"/>
<path d="M11.1,340c-0.5-0.7-0.6-1.5-0.9-2.1c0.6,0.1,1.3,0.2,2,0.4C11.9,338.9,11.7,339.5,11.1,340z"/>
<g>
	<path d="M336.1,82.9c0,0,0.6-0.1,1.3,0c3.9,0.5,8.3,2.3,10,0.9c6-4.9,12.6-3.3,19.3-3.3c0.4,1.5,0.7,2.6,0.6,2.4
		c4,0.6,7.7,1.1,11.4,2c1.1,6.2,5.4,3.5,8.7,3.9c0.1,0.2,0.1,0.7,0,1.1c0,0.6-0.1,0.9-0.4,1.5c-3.1,1-5.9,1.8-8.7,2.1
		c-5.7,0.5-11.5,0.6-17.4,0.9c0,0.5,0,1,0,1.6c12.1,0,24.2,0,36.5-0.1c0.6,0,1.3-1.3,2.2-2.3c2.4,0.5,4.5,1.3,6.8,2.2
		c0.4-0.7,1-2,2-3.2c4.5,0.5,8.6,0.9,12.7,1.3c0-0.4,0-0.7,0-1.1c-0.6-0.4-1.2-0.7-3.2-1.8c3.4,0.2,5.3,0.2,7,0.5
		c17,2.8,34,5.6,50.9,8.7c9.4,1.7,18.8,3.4,27.9,6.2c10.4,3.3,20.3,8.1,30.5,12.2c3.9,1.6,7.8,3.1,11.7,4.6
		c11.1,4.3,22.3,8.6,33.3,13.5c0,1.8,0,3.2-0.2,4.8c-0.2,0.5-0.4,0.7-0.4,1c0.2-0.4,0.4-0.7,1-1.1c5.3,2.2,10,4.4,14.7,6.4
		c-0.6,3.1-1,5.1-1.3,7.2c0.4,0.4,0.7,0.9,1.1,1.2c2.4-1.6,4.9-3.1,7.6-4.6c1.8,0,4.3-0.7,5.1,0.1c3.3,3.7,6.2,5.9,10.2,0.9
		c0,0,0.5,0.2,0.9,0.4c-0.1,0-0.5,0.1-0.5,0.1c-0.2-0.5-0.4-1-0.6-2c0.6-1.6,1.2-2.7,1.8-3.8c14.1,9.3,28,18.6,42.1,28
		c-0.5,0.9-0.9,1.6-1.3,2.4c-2.7-1.1-5.4-2.2-8.6-3.7c-1.2-0.5-2-0.5-2.6-0.6c0.1,0.5,0.2,1,0.4,1.6c1.5,1.8,2.9,3.8,4.4,5.6
		c0.5-0.5,0.6-0.6,0.7-0.7c-0.4-0.1-0.6-0.2-1-0.4c-0.1,1.2-0.7,2.9-0.1,3.4c0.7,0.7,2.3,0.6,3.5,0.9c1.6,0.2,3.4,0.4,4.9,1
		c6.7,2.9,13.3,6.1,19.8,9.3c2.4,1.2,5,2.6,7.1,4.4c4.3,3.8,8.2,7.8,12.5,12.6c0.1,2.8,0,4.8-0.6,6.6c-2.4-1.1-4.4-2.2-6.5-3.2
		c-0.2,2.2,0.6,3.8,1.8,5.1c3.1,3.5,10.3,3.9,8.2,11.4c-0.1,0.6,1.7,1.7,2.9,2.4c0.5-0.5,0.7-0.6,1.2-0.5c-0.1,3.7,1.1,5.6,4.9,5.3
		c0.1,0,0.1-0.1-0.4,0.2c1,0.5,2.4,0.7,4.3,1c1,0.1,1.5,0.2,2.2,0.6c1,0.7,1.8,1.2,2.6,1.7c1.7,0,3.4-0.1,5.7,0.2
		c1.3,0.6,2.2,0.7,3.1,0.9c0.7,0.6,1.5,1.2,2,2.3c-2.1,0.7-3.9,1.1-6.2,1.3c-2.1-0.7-3.7-1.6-5.3-2.4c-0.4,0.4-0.6,0.9-1,1.2
		c2.2,1.8,4.4,3.7,6.7,5.9c1,0.6,2.4,1.3,2.7,1c1.1-1.3,2-2.9,3.4-5.4c1.3,16.9,6.7,17.9,13.5,13c3.8,1.7,7.5,3.4,11.9,5.9
		c1.6,1,2.6,1.2,3.7,1.5c-0.5-1.1-1.1-2.2-1.6-3.3c5.7,4,11.7,7.8,17.1,12.4c3.3,2.8,5.7,6.8,8.9,10.8c-1.2,0.4-1,0.2-0.7,0.2
		c4.9,0.5,10.5-1,14.1,3.9c0.5,0.7-0.1,2.3-0.4,3.5c-0.4,1.5-0.9,2.8-1.5,4.4c-3.7,4.8-7.7,9.9-11.5,15.3c-2.4,3.5-4.5,5-8.7,2
		c-2.8-2.1-5.7-1.5-6.1,3.1c0,0.7-0.6,1.5-1.2,2.1c-5.3,5.6-10.5,11-15.7,16.6c-6.2,6.7-11.5,14.4-18.6,19.9
		c-3.8,2.9-1.6,6.7-4.4,9.2c-3.1,2.7-5.4,6-8.3,8.8c-6.5,6.2-13.2,12.2-20.3,18.7c0.9,0.7,2.7,2.2,5.6,4.8c-1.7,1.8-4.4,4.6-7.2,7.5
		c-0.5,0.5-1.6,0.5-2.1,1.1c-3.3,3.8-6.8,6.5-11.7,8.7c-7.8,3.5-14.3,10-21.4,15.3c-6.1,4.4-12.2,8.7-18.5,12.8
		c-2.4,1.6-5.4,2.6-8.9,3.7c-2.4-2.7-4-5.1-5.9-8c0.1-0.2,0.7-1.3,2.2-3.9c-6.1,2.7-11.9,3.7-15,7c-2.4,2.7-4.4,4.8-8,4.8
		c-1.7,0-3.3-1.8-5.1-2.1c-7.3-1-12.5,3.8-18.8,6.7c2.1,1.6,3.7,2.8,5.1,3.9c-2.8,4.9-2.8,4.9-13,4.6c0.1,3.2,0.4,6.4,0.5,9.5
		c0,0-0.1,0.1-0.5,0c-6.8-0.1-13.3-0.1-19.8-0.1c-0.2,1-0.5,2.1-0.7,3.1c1.5,0.5,2.8,1.5,4.3,1.5c2,0,3.9-0.7,5.9-1.2
		c0.1,0.4,0.2,0.7,0.4,1.2c-9.8,4.5-19.7,9.1-30,13.6c-4.9,0.9-9.4,1.7-14.2,2.4c-4.5-2.1-16.6,1.5-19.2,5.1c-1.3,2-3.4,3.5-5.3,5.4
		c0.4,2,0.9,4.9,1.5,7.7c-0.5,0.1-1.1,0.1-2.3-0.1c-7.3-4.9-11.1-3.7-12.4,3.4c-12.6,2.6-25.2,5.1-37.8,7.7
		c-2.6-4.4-9.9-4.5-13.3-0.7c-0.7,0.9-2,1.7-2.9,1.8c-12.4,0.1-24.8,0.2-37.2,0.1c-6.1-0.1-12.2-0.9-18.3-1.3
		c-8.9-0.7-18.1-0.7-26.8-2.7c-6-1.3-10.8,0.2-16.3,1c-4.9,0.7-10.3-2.8-15.4-4.2c-3.4-1-7.2-1.2-10.5-2.4c-2.3-0.9-4.2-2.8-7.6-4
		c0.5,1.5,0.9,3.1,1.5,5.1c-0.2,0.1-1.6,0.5-3.4,1.2c-0.1-2.1-0.2-3.8-0.4-5.4c-0.5-0.4-0.7-0.6-1.1-0.7
		c-11.3-2.7-22.5-5.3-33.8-8.3c-9.4-2.6-18.8-5.4-28.1-8.6c-9.2-3.3-18.5-5.9-27.5-9.9c-5.6-2.6-11.3-4-15.7-8.8
		c-2.1-2.3-6-2.9-9.7-4.6c-1.3-0.6-2-0.7-2.7-0.9c0.1-0.5,0.2-0.9,1-1.6c1.2-0.7,2-1.1,2.7-1.7c-7.3-1.2-6.7-8.4-11-13.9
		c-1.7,4.3-3.3,8.1-4.8,11.9c-1.5-1-2.6-1.7-3.5-2.4c-8.4-5.4-16.8-11.1-25.4-16.3c-5.6-3.4-11.7-5.9-17.4-9.2
		c-1.1-0.6-2.2-3.9-1.6-4.8c3.9-5.3-1-7.1-3.5-9.5c-1.3-1.3-3.4-1.7-5.6-3.2c-1.3-1.3-2.1-2.3-3.3-3.3c-2.9-2.9-5.5-5.7-8.3-8.8
		c-4.2-3.7-8-6.8-11.6-10.3c0.5-0.6,0.6-1.1,0.7-2.1c0-1.3,0-2.3,0.2-3.3c0.1-0.1,0.1-0.5,0.1-0.5s-0.4,0.5-0.7,0.2
		c-2.3-2.3-4.2-4.3-5.7-6c-1.8,1.3-3.4,2.6-5.5,3.8c-2.4-1.7-4.5-3.3-6.2-4.9c0.6-0.6,0.9-1.1,1.1-1.6c-0.6,0.2-1.2,0.6-2.1,0.7
		c-1.7-1.5-3.1-2.7-4-4.2c2.6-2.1,4.8-4,7.6-6.5c-1.6-2.3-4-5.9-7.7-11.1c-2.4,4.9-4.5,8.9-7,12.8c-1.6-1.1-3.1-2-4.2-3.1
		c-4.6-4.5-9.3-9.1-13.7-13.9c-0.4-1.5-1-2.7-1.5-3.8c-0.5,0.4-1.1,0.7-1.6,1.1c0.7,1.1,1.5,2.1,2,3.5c-1.8-0.7-3.4-1.8-4.9-3.3
		c0.4-1.6,0.6-2.8,0.9-4.6c-2.2,1.1-3.5,1.8-4.8,2.6c0.1-0.1-0.1,0-0.1-0.4c-0.5-3.9-1.1-7.5-1.6-10.9c-1.8,1-4.2,2.3-6.8,3.3
		c-1.8-1.1-4.2-1.3-5-2.6c-2.6-3.9-5.9-6-10.6-5.7c-1.8-2.2-3.7-4.4-5.6-6.7c1-2,4.9-3.8,1.2-7.6c-0.6-0.6,0.7-4,2-5.6
		c5.7-7.5,11.7-14.7,17.6-22c2.1-2.6,3.7-5.6,6-8.1c4.2-4.5,8.7-8.8,13.2-12.8c2.8-2.4,5.9-4.5,9.3-6.4c0.1,1.5-0.2,2.6-0.6,4
		c0.1,3.2,0.2,5.9,0.5,8.7c0.5-0.4,1.2-0.6,1.5-1.1c7-9.8,15.8-17.9,24.6-26.1c2.2-2.1,2.9-5.9,4.4-8.9c-0.5-0.2-1-0.5-1.5-0.7
		c-0.9,0.7-1.8,1.6-2.7,2.4c-2.6,2.6-4.9,5.4-7.7,7.7c-1.8,1.6-4.2,2.4-6.6,3.5c-0.4-1.7-0.5-3.3-0.5-5c7.8-7.5,15.4-15.3,23.7-22.4
		c9.7-8.3,19.9-15.9,29.8-23.9c1.3-1.1,2.2-2.7,3.3-4c1.8-2.3,3.5-4.8,5.6-6.4c2.9-1.8,6.1-3.4,8.9-5.5c9.3-7,18.3-14.2,27.6-21
		c7.1-5.3,14.3-10.4,21.8-15c21.7-13.5,43.5-26.5,65.3-39.9c0.5-0.2,1.1-0.9,1.6-0.7c9.2,2.4,15.9-3.9,23.6-6.4
		c1.1-0.4,2.6,0.2,3.9,1.2c2,3.7,3.8,6.5,5.9,9.7c0.4-0.1,1.7-0.5,2.9-0.9c1.5-0.5,2.9-1,4.9-1.5c2-0.9,3.5-1.7,5.3-2.8
		c1.2-1.7,2.2-3.1,3.2-4.5c-0.5-0.6-1.5-2.1-2.4-3.5c0,0,0,0,0.4-0.1c0.7-0.4,1.1-0.9,1.7-1.2c0.9-0.4,1.6-0.7,2.7-1.1
		c1.6,0,2.7,0,4-0.2c1.5-1.2,2.6-2.3,3.8-3.4c-1.6-1.5-2.8-2.6-4.2-3.8c0.6-1.2,1.2-2.4,2.3-4.4c1.5,1.8,2.7,3.1,3.8,4.4
		c-0.2,0.5-0.6,1.1-0.9,1.6c3.2-0.5,6.4-1,10.4-1.2c3.9,3.3,7.5,2.2,10.5-2.7c0.7-0.4,1.1-0.6,2-1c3.2,0.9,6,1.7,8.8,2.4
		c0.1-0.2,0.4-0.5,0.5-0.7C340.6,87.3,338.4,85.1,336.1,82.9 M303.4,102.1c-0.1,0-0.2,0-0.7,0.1
		C302.8,102.4,302.9,102.4,303.4,102.1 M263.8,150.6c-0.4,0.1-0.7,0.4-2,0.6c-1.1,1.6-2.2,3.2-4,5.7c3.3-0.6,4.8-0.9,6-1.1
		c-0.4-1.6-0.7-3.1-0.6-4.5c0,0,0.5,0.1,0.7,0.4c0.1,0,0.2,0,0.5,0C264.3,151.4,264.3,151.2,263.8,150.6 M110.6,380
		c0.1,0,0.4,0,0.7-0.1v-0.5C111.4,379.4,110.9,379.8,110.6,380 M134.4,378.9h0.4c0,0-0.5-0.4-1-0.9c-0.6-0.2-1.3-0.5-2-1.3
		c1.2-1.5,2.4-2.9,4.4-4.2c1.8,1.6,3.7,3.2,4.9,5.3c-0.4,1.3-0.6,2.8-1,4.2c0.4,0.1,0.9,0.2,1.2,0.4c0.4-1.6,0.9-3.1,2.1-4.4
		c10.2,10.8,24.2,15.7,36.3,23.6c10.6,7.1,21.4,13.9,32.7,19.6c10.8,5.4,22.1,9.8,33.6,13.3c13.2,4.2,26.8,7,40.1,10.3
		c10.2,2.6,20.2,5.5,30.5,7.8c7.1,1.6,14.1,4.5,21.9,3.5c0.1,0.2,0.4,0.5,1.1,1.5c4,0.1,8.1,0.4,12.1,0.2
		c11.1-0.5,21.5,4.4,32.9,3.2c6-0.6,12.2,2,18.5,3.1c0,0-0.1,0-0.5,0.7c0.2,0.5,0.4,1,0.5,2.2c0,0.2,0,0.5-0.2,0.9v0.4
		c0,0,0.2-0.5,1-0.2c1.7,2.1-2.1,7.8,5,6.6c-2.6-5.3-2-8.8,4.5-9.5c0.7-0.1,1.3-1.8,2.9-3.3c0.7-0.4,1.3-1,2.1-1.1
		c13.7-1.7,27.5-3.4,41.2-5c1.2-0.1,2.4,0.9,2.1,2.7c-0.4,0.6-0.7,1.2-1.8,2.3c-5,2.3-9.9,4.6-14.9,7.1c0.1,0.4,0.2,0.9,0.4,1.2
		c2.9-0.5,5.7-1,9.4-1.3c1,0.5,2.2,0.7,3.1,1.6c2.1,2.1,3.9,4.3,7.1,8c0-6.6,1.8-9.1,6.6-7.5c0.1,0.5,0.2,1.1,0.5,1.6
		c0.2-0.7,0.5-1.5,1.2-3.1c2.7-1.3,5.4-2.7,8.2-3.9h0.4c0,0-0.4-0.4-0.2-1.1c1.1-0.5,2.3-1.1,4.2-1c1.8,0.2,3.7,0.4,6.1,0.6
		c0,0,0.6,0,1.2,0c0.2,0,0.4,0,1.5,0c0.5,0,1.1,0,1.6,0.9c0.9,1.3,1.6,2.7,3.3,3.9c6.1-1.5,6.8-7,8-9.8c2.9-2.3,4.4-3.5,6.6-5.4
		c13.2-4.6,26.4-9.4,39.6-14.1c-2.6-9.5-7.7,2.4-10.8-2.2c1.5-1.7,2.8-3.8,4.6-5.1c0.9-0.6,2.9,0.6,4,0c5-2.6,9.9-8.1,14.7-7.8
		c7.3,0.4,12.6-4.3,19.3-4.6c1.7-0.1,3.3-2.2,5.7-3.4c3.1,0.5,6,0.9,9.1,1.3c-0.4-0.6-0.6-1.2-1-1.8c2.2-2.7,4.4-5.4,7.6-8.1
		c4.4-1.2,9.4-1.6,13.2-3.9c5.5-3.3,10.3-8,15.3-12.1c1.1-0.9,1.6-2.4,2.9-4.3c1.5-1.8,3.1-3.7,4.5-5.4c0,0,0,0.1,1-0.1
		c0.5-0.9,1-1.6,1.3-2.4c0,0,0,0.1,0.7,0.7c29.2-22,52.5-50.3,79.1-75.5c-3.2-2.1-6.5-2.3-8.6-3.9c-5.6-4.3-11-8.9-16-13.8
		c-5.9-5.7-11.4-11.9-17.1-17.9c-2.1-2.2-4-6-6.4-6.2c-5.6-0.6-6.5-4.4-7.6-9.3c-1.6-0.9-3.1-1.6-5.4-2.7
		c-15.4-11.4-30.7-22.6-46.1-34c-3.9-2.8-8.1-5.3-11.7-8.4c-4.5-3.9-8.2-8.7-12.7-12.6c-2.3-2.1-5.4-3.2-8.1-4.8
		c-2.1-1.2-3.9-2.9-6.1-3.8c-7.1-2.8-14.3-5.4-21.4-8.2c-1.7-0.7-3.1-2.3-4.2-3.3c-3.9-0.9-7.7-1.3-11.4-2.4c-7.7-2.4-15.4-5-23-7.7
		c-2.8-1-5.5-2.2-9.3-3.8c-2,1.2-2.3,1.1-3.7-3.3c-0.5,0.6-1.3,2.1-1.8,2c-5.9-1.3-11.7-2.9-17.5-4.5c-0.7-0.2-1.6-0.4-2.4-0.5
		c-5.4-0.1-10.6,0.1-16-0.4c-19.3-1.7-38-8.6-57.6-7.5c-11.4,0.6-23.2-5-34.2,2.1c-1.6,1-4,0.5-5.9,1.1c-6.1,2-13.7-3.8-18.8,3.5
		c-0.2,0.2-1.5-0.1-2.3-0.2c-2.1-0.2-4-0.9-6.1-0.7c-11.7,0.7-23.5,1.7-35.2,2.6c-1.6,0.1-3.2,0.4-4.6,1c-4.2,1.8-8,4.3-12.1,5.9
		c-10.9,4-22.1,7.2-32.8,12c-11,4.9-21.9,10.4-32,17.1c-2,1.3-5.1,1-7.2,1.3c-0.5,1-0.9,2.4-1.8,3.2c-1.2,0.9-3.1,1-4.3,1.8
		c-10.4,6.7-20.7,13.6-30.9,20.3c-3.4,2.2-7.1,4.2-10.6,6.4c-7,4.3-14.4,8-20.7,13.2c-9.8,8.2-18.5,17.6-27.9,26.3
		c-7.3,6.6-15,12.8-22.5,19.2c-8.1,6.8-16.1,13.6-24,20.5c-6.6,6-12.8,12.4-19.7,19.1c0,0.2,0.1,0.6,0.1,0.9
		c0.4-0.1,0.9-0.4,2.1-0.5c3.8,2.2,7.7,4.4,10.8,6.8c-0.4,0.6-0.7,1.1-1.1,1.7c0.9,0.2,1.6,0.5,2.8-0.1c0.4,0.1,0.6,0.2,0.1,0.7
		c-1,2.4-2,4.8-2.8,7.1c1.3,1,2.6,2,2.9,2.9c-0.9,0-1.7,0-2.9-0.7c-0.7-1-1.6-1.8-2.3-3.5c-0.9-0.4-1.8-0.6-3.4-1.6
		c-2.3-1.8-4.8-3.7-8-6c1.1,8.9,8.6,9.4,12.6,14.2c0,1.1-0.1,2.2-0.1,3.3c1.2-0.2,3.1,0,3.7-0.9c1-1.2,1.1-3.1,2.1-4.3
		c0.6,0.7,1.2,1.5,1.8,2.2c3.2-1.8,6.1-3.5,10-5.3c4,2.2,8.1,4.4,12,7.5c-2,2.8-3.8,5.5-5.4,7.8c-2.7-0.6-5.4-1.1-8.1-2.6
		c-0.1-1.2-0.2-2.4-0.2-3.8c-0.6,0.1-1.1,0.4-1.7,0.5c0.6,1.3,1.3,2.7,2,5c1.3,2.7,2.6,5.4,3.9,8.1c3.9-2.2,7.6-4.3,11.3-6.4
		c-0.7-0.9-1.5-1.6-2.2-2.4c0.7,3.9,1.6,7.7,2.7,13.1c2.4,0.9,6.8,2.3,11.1,4.8c-1.3,9.3,5.6,3.5,9.3,4.6c-0.7,2.3-1.3,4.4-2,6.2
		c2.4,0,4.8,0,7.1,0c-0.5-0.2-1.1-0.6-1.6-0.9c1.5-2.8,2.9-5.6,4.3-8.4c0.6,0.2,1.2,0.6,1.8,0.9c-0.6,1.8-1.3,3.5-2.2,5.5v0.4
		c0,0,0.2-0.5,1-0.5c1-0.4,2-0.7,3.3-0.6C132.9,378.3,133.5,378.4,134.4,378.9 M694.4,405.5c-0.9,0.4-1.6,0.9-3.4,1.3
		c-2.1,0.4-4.3,0.7-6,0.4c1.1-1.3,2.3-2.8,4.3-4.2c2.7-1.5,5.5-3.1,1.1-6c-0.7,2.3-1.2,4.2-2.4,5.4c-11.3,7.8-22.4,15.5-33.6,23.4
		c0.2,0.5,0.4,1,0.6,1.5c3.9-1.7,8.1-3.2,11.9-5.4s7.1-5.3,10.9-6.8c0.4,0.4,0.9,1.1,1.3,1.1c6.8,0.7,9.7-5.1,14.6-8.9
		c0.6-0.4,1.2-0.7,1.5-1.3C694.9,406.1,695,406.1,694.4,405.5 M217.3,184h-0.4c0,0,0.5,0.2,0.5,1c0,0.2,0,0.4-0.5,1
		c0,0.5,0,1-0.1,1.6c0.4-0.1,0.6-0.1,1-0.2c-0.1-0.6-0.2-1.1,0.1-1.7c0.2-0.1,0.6-0.4,0.9-0.5C218.3,184.6,217.9,184.4,217.3,184
		 M348.2,490.7c0.2,0.2,0.4,0.5,0.6,0.7c-0.1-0.5-0.2-1.1-0.1-2.2c-0.5-0.6-1.1-1.1-2-2.2c-0.6,0-1.2-0.1-1.7-0.1c0,0.2,0,0.4,0,0.6
		c0.7,0,1.5,0.1,2.3,0.9C347.5,488.9,347.8,489.5,348.2,490.7 M169,432.1c0-0.6,0.1-1.2,0.1-1.8c-0.2,0-0.4,0-0.6,0
		c0,0.7-0.1,1.5-0.4,2.3v0.4C168.3,433,168.5,432.5,169,432.1 M240.8,464.7h0.4c0,0-0.5-0.4-0.5-0.9c-0.4-0.2-0.7-0.6-1.1-0.9
		c-0.1,0.4-0.4,0.9-0.4,0.9C239.7,463.9,240.2,464.2,240.8,464.7 M174,429.1c0.6-0.2,1.1-0.4,1.7-0.6c0,0-0.2-0.6-0.4-1
		c-0.6,0.5-1.3,1-2.2,1.5v0.4C173.2,429.3,173.4,428.8,174,429.1 M215.7,448.4c0.4-0.4,0.7-0.7,1.1-1.1c0,0-0.4-0.4-0.6-0.6
		c-0.5,0.5-0.9,1.1-1.8,1.7c-0.2,0.2-0.5,0.4-0.9,0.6C214,448.8,214.5,448.7,215.7,448.4 M253.6,465.5c0.4-0.4,0.6-0.7,1-1.2
		c-0.2-0.2-0.5-0.4-0.7-0.6c-0.4,0.5-0.9,1.1-1.8,1.8c-0.4,0.4-0.7,0.7-1,1.1c0.2,0.2,0.5,0.4,0.7,0.6
		C252.2,466.8,252.7,466.3,253.6,465.5 M471.2,479.1c-0.4,0.4-0.7,0.7-1.1,1.1c0.2,0.2,0.5,0.4,0.7,0.6c0.4-0.6,0.7-1.1,1.3-1.8
		v-0.4C472.1,478.5,471.9,479,471.2,479.1 M175,433.7c-0.7,0.5-1.3,1-2.1,1.3c0.2,0.2,0.7,0.7,0.7,0.6c0.7-0.6,1.5-1.3,2.6-2.3
		c0.1-0.4,0.1-0.6,0.2-1C176.3,432.9,176.1,433.2,175,433.7 M513,485.8c-0.6-0.2-1.3-0.5-2-1.6c-0.4-1.1-0.6-2.2-1-3.3
		c-0.5,0.2-1.1,0.6-1.6,0.9c0.9,1.1,1.7,2.2,2.6,3.9c0.7,0.2,1.6,0.4,2.8,1.2c1.1,0.5,2.2,0.9,3.4,1.3c0.1-0.4,0.2-0.9,0.4-1.2
		C516.3,486.8,514.8,486.6,513,485.8 M662.7,224.1c0.1,0.6,0.1,1.2,0.2,1.8c0.2-0.1,0.6-0.2,0.9-0.2c-0.4-0.7-0.9-1.5-1.3-2.8
		c-1.1,0.2-2.2,0.5-3.3,0.9c0.1,0.5,0.2,1,0.4,1.3C660.7,224.4,661.7,223.8,662.7,224.1 M94,370.9c0.4,0.6,0.7,1.1,0.7,2.3
		c-5.6,3.4-3.1-4.5-7.3-4.4c0.7,2.3,1.3,4.5,1.7,5.6c-1.7,2.4-2.9,4.4-4.3,6.2c6.7,2.8,12.1,5,18.1,7.5c1.1-0.9,2.9-2.1,3.9-2.8
		c-2.6-2.6-4.9-4.6-7-6.8c-1.7-1.8-3.1-3.9-4.8-6.6c-0.4-0.6-0.7-1.1-1.1-2.6c-0.5-1-0.9-2.1-1.3-3.1c-0.5,0.4-1,0.7-1.5,1.1
		C92.1,368.3,92.9,369.3,94,370.9 M99.9,228.6c-1,1.2-1.8,2.6-2.8,3.8c0.5,0.4,1.1,0.7,1.6,1.2c1-1.2,1.8-2.6,3.4-4
		c0.2-0.4,0.5-0.6,1.5-1.2c2.3-2.6,4.6-5.1,7-7.7c-0.6-0.6-1.3-1.1-2-1.7c-2.4,2.9-4.8,5.9-7.5,8.9
		C101.1,227.9,100.7,228.4,99.9,228.6 M78.2,349.1c-1.6,0-3.3,0-4.9,0c0,0.5,0.1,1,0.1,1.5c2-0.4,4-0.7,6.5-1.2
		c0.1-0.5,0.2-1,0.4-1.5C79.9,348.2,79.5,348.7,78.2,349.1 M339,462.1c0.2,1,0.6,2.1,0.9,3.1c0.6-0.2,1.2-0.5,2-0.6
		c-0.6-0.9-1.3-1.7-1.7-2.8v-0.4C340.1,461.4,339.8,461.7,339,462.1 M251.9,452.7c0.5,0.4,1,0.6,1.3,1c0.1-0.1,0.2-0.4,0.2-0.5
		c-0.6-0.4-1.3-0.7-1.6-1.8c-0.1-1.8-0.2-3.5-0.4-6.2c-1.7-2.2-3.4-4.4-5.5-7.2c-1.6,2.4-2.4,3.8-3.7,5.9c3.5,0.9,6.4,1.6,9.1,3.1
		C250.7,448.5,248,450.4,251.9,452.7 M427.3,467c0.6-1.3,1.2-2.6,1.7-3.9c-0.6-0.1-1.3-0.4-2-0.5c-0.1,1.5-0.4,2.8-1,4.3
		c-0.2,0.1-0.5,0.4-0.7,0.5c0.1,0.1,0.4,0.2,0.5,0.1C426.1,467.2,426.4,467,427.3,467 M168.5,197.2c0.2,0.7,0.5,1.6,0.7,2.3
		c0.2-0.1,0.6-0.2,0.9-0.4c-0.5-0.9-1.1-1.8-1.3-3.4c-0.4-0.9-0.6-1.6-1-2.4c-0.9,0.9-1.8,1.8-2.7,2.7
		C166.3,196.2,167.4,196.3,168.5,197.2 M419.5,466.8c-2.6,0.9-5,1.7-8.2,2.7c-0.4,0.7-0.6,1.3-1,2.1c0.4,0.1,0.6,0.2,1,0.4
		c0.2-0.9,0.4-1.7,1.5-2.6c2.6,0,5.5,1.7,8.2-0.7c0.6-1.3,1.2-2.6,1.7-3.9c-0.6-0.1-1.2-0.4-1.8-0.5
		C420.9,464.9,420.6,465.9,419.5,466.8 M298.3,142.1c0.4,0.4,0.6,0.9,1,1.2c0.2-0.2,0.5-0.5,0.7-0.7c-0.6-0.4-1.2-0.7-1.6-1.8
		c-1.5-4.9-3.9-0.5-5.9-1.2c0,0.6-0.1,1.2-0.1,1.8C294.4,141.4,296.3,141.4,298.3,142.1 M172.9,423.8c1.2-1.1,2.4-2.2,4-3.8
		c-5.5-0.9-5.5-0.9-5.3,4.3c-0.1,0.4-0.1,0.6-0.2,1C171.7,424.8,171.9,424.3,172.9,423.8 M222.3,180.2c1.2,0.6,2.6,1.3,3.8,2
		c0.1-0.7,0.4-1.5,0.5-2.2c-1.5-0.2-2.8-0.5-4.3-1.6c-1.3-1.1-2.8-2.2-4.2-3.4c-0.6,1.2-1.2,2.6-1.7,3.5
		C219,178.9,220.6,179.2,222.3,180.2 M86.6,364c0,0,0,0-0.1-0.7c-1.8,0-3.5,0-5.4,0c0,0.6-0.1,1.2-0.1,1.8c2.2,0.4,4.3,0.7,6.5,1.1
		C87.2,365.5,86.9,364.7,86.6,364 M586.8,166.2c-0.5-0.7-0.9-1.5-1.3-2.2c-0.2,0.2-0.7,0.7-0.7,0.7c0.6,0.7,1.3,1.6,2.1,3.2
		c0.2,6.2,3.4,3.1,5.9,2.4c0.1-0.6,0.4-1.1,0.5-1.7C591.1,168.2,588.9,167.6,586.8,166.2 M221.3,450.2c0.5,0,0.9,0,1.3-0.1
		c-0.5-0.2-0.9-0.5-1.2-1.6c0.5-1.6,1.3-3.3,1.1-4.8c-0.1-0.9-2.2-1.2-5.1-2.7C219.1,445.2,220,447.6,221.3,450.2 M226.6,446.6
		c-1,5,2.6,6.6,6.6,7.8c-2-2.8-3.9-5.6-5.4-8.9c0-1.1,0-2.3,0-3.4c-0.5,0.1-1.1,0.1-1.6,0.2C226.5,443.4,226.9,444.7,226.6,446.6
		 M686.3,243.4c0.5-0.1,1-0.1,1.6-0.2c-0.2-0.5-0.5-1-0.5-2.1c1,0,2,0,2.9-0.1c3.1-0.4,3.4-2,1.1-3.7c-1.5-1-3.7-1.8-5.4-1.5
		c-2.1,0.4-3.9,2-6.8,3.7C681.4,240.6,683.7,241.8,686.3,243.4 M244.3,458.9c0.4,0.4,0.7,0.7,1.1,1.1c0.2-0.2,0.4-0.5,0.6-0.7
		c-0.6-0.4-1.1-0.9-1.6-2.1c1.1-1.2,2.3-2.4,3.3-3.4c-1.7-1.6-3.2-2.8-4.6-4.2c-0.6,1.1-1.1,2.2-1.7,3.2s-1.3,1.8-2.3,2.9
		c-1.5-1.1-2.7-2-4.2-3.2C235.9,458.1,235.9,458.1,244.3,458.9 M223.3,471.4c-3.4-2.2-7.5-2.7-10.5-6.5c-2.1-2.4-8.2-1.7-13.5-2.4
		c9.1,9.4,34.9,18.6,43.4,15.2c-1.8-1-2.9-2-4.3-2.3C233.7,474,228.9,472.9,223.3,471.4 M39.5,277.3c-3.1,4.6-6,9.3-9.1,13.9
		c-0.4-0.2-0.6-0.6-1-0.9c-0.5,2.4-1,4.9-1.3,7.3c0.5,0.2,1,0.6,1.5,0.9c5.3-4.6,10.5-9.3,15.8-13.9c-0.6-0.7-1.1-1.3-1.7-2.1
		c-1-0.1-2-0.4-3.1-0.5c0.5-0.4,0.9-0.7,1.3-1.1C40.9,279.5,40.1,278.3,39.5,277.3 M751.4,274.7c4,2.6,8.2,5.1,12.2,7.8
		c0.5-0.4,0.9-0.7,1.3-1.1c-1-2-1.5-4.6-3.1-5.7c-5.1-3.7-10.6-6.8-16.1-9.9c-0.7-0.4-2.6,0.1-3.1,0.9c-0.5,0.6-0.4,2.7,0.2,3.1
		C745.4,271.4,747.9,272.9,751.4,274.7 M370.8,125.5c-3.8,0.4-7.5,0.7-11.3,1.1c0,0.6,0.1,1.1,0.1,1.7c11.7-0.6,23.4-1.3,35.1-2
		c-0.1-1-0.1-2.1-0.2-3.1C387,123.9,379.4,124.6,370.8,125.5 M344.9,498.6c-5.9-1-11.7-2-17.6-2.8c-0.1,0.9-0.2,1.7-0.4,2.6
		c6.4,0.9,12.6,1.7,19,2.6C345.9,500,345.9,499.2,344.9,498.6 M691.3,243.6c-0.7,2.7-1.5,5.4-2.1,8.1c0.7-0.2,1.3-0.5,2.1-0.6
		c1.3,0.2,2.6,0.5,4,0.9C698,247.8,696.6,245,691.3,243.6 M122.5,247.8c2-1.8,3.8-3.7,5.7-5.4c-0.4-0.4-0.7-0.7-1-1.2
		c-4.9,3.4-9.8,6.8-14.7,10.3c0.5,0.6,0.9,1.3,1.3,2C116.5,251.6,119.1,249.9,122.5,247.8 M545,148.4c-1.3-1.2-2.7-2.3-3.9-3.5
		c-0.5,0.5-1,1.1-1.3,1.6c3.1,2.4,6.1,5,9.7,8c0.9-0.5,2.4-1.3,4.5-2.4C550.9,150.6,548.4,149.3,545,148.4 M631.5,209.6
		c-1,2-2,3.9-3.1,6c2.7,0.6,5.1,1.1,8.1,1.7c0-2,0-3.7,0-6.2C631.9,215.5,633.1,210.9,631.5,209.6 M94.6,389.7
		c-0.5,1.2-1,2.6-1.5,3.8c2.3-1.3,4.6-2.7,7-4c-0.4-0.6-0.6-1.1-1-1.7C97.8,388.2,96.5,388.7,94.6,389.7 M527.6,488.5
		c-1.2-2.6-2.3-5.1-3.5-7.6c-0.7,0.5-1.5,1-2.2,1.5C523.5,484.5,525.2,486.6,527.6,488.5 M151.7,408.8c-2.8-0.6-5.6-1.2-8.3-1.8
		c0,1-0.1,1.8-0.1,2.8C145.8,409.5,148.4,409.3,151.7,408.8 M667.5,243.3c0.4-1.5,0.7-2.8,1.1-4.3
		C664.6,242.5,664.6,242.5,667.5,243.3 M146,404.5c-0.4-1.5-0.7-3.1-1.1-4.5c-0.7,0.4-1.6,0.9-2.3,1.2
		C143.6,402.4,144.4,403.6,146,404.5 M359.6,488.4c-0.9,0.1-1.8,0.2-2.8,0.4c1.2,1.8,2.1,3.4,3.1,5c0.5-0.1,1-0.2,1.3-0.4
		C360.9,491.8,360.5,490.2,359.6,488.4 M554.1,474.7c-0.5,0.9-1,1.7-1.5,2.4c1.5-0.1,2.8-0.2,4.3-0.4
		C556.1,476.1,555.5,475.2,554.1,474.7 M669.9,228.1c-1.1-1.8-2.2-3.8-3.2-5.6c-0.6,0.4-1.1,0.7-1.7,1.1
		C666.7,225.3,668.4,227,669.9,228.1 M323.2,97c-1.3,0-2.6,0-3.9,0c-0.6,0.7-1.2,1.6-1.8,2.3c1.2,0.4,2.7,1.2,3.8,1
		C322.3,100.2,322.9,98.6,323.2,97 M674.3,256.4c0.7-1,1.5-2,2.4-3.4C672.7,253.9,672.7,253.9,674.3,256.4 M251.9,459.4
		c-0.5,0.2-1,0.5-1.5,0.7c1.7,0.5,3.4,1,5.1,1.3c0.1-0.5,0.2-1,0.2-1.6C254.7,459.8,253.8,459.5,251.9,459.4 M481.2,476.8
		c0-1.1,0-2.1,0-3.2c-0.5,0.1-1,0.1-1.6,0.2C479.9,474.7,480.2,475.6,481.2,476.8 M372.8,117.7c-0.7-0.7-1.6-1.5-2.3-2.2
		c-0.2,0.5-0.5,1-0.7,1.5C370.5,117.3,371.3,117.7,372.8,117.7 M479.4,479.2c-0.4,0.7-0.7,1.5-1,2.2c0.5,0.1,1,0.1,1.5,0.2
		C479.9,480.9,480.1,480.1,479.4,479.2 M253.5,155.5c0.6-0.2,1.2-0.6,1.8-0.9c-0.2-0.4-0.5-0.7-0.7-1
		C254,154.1,253.5,154.7,253.5,155.5 M71.7,375.6c0.4-0.4,0.9-0.7,1.2-1.1c-0.9-0.1-1.7-0.1-2.4-0.2
		C70.8,374.8,70.9,375.3,71.7,375.6 M546.5,479.2c0.5,0.6,0.9,1.1,1.3,1.7c0.2-0.4,0.6-0.9,0.9-1.2
		C548.1,479.4,547.6,479.1,546.5,479.2 M100,370.9c0.6-0.2,1.2-0.6,1.7-0.9c-0.2-0.2-0.6-0.9-0.7-0.7C100.5,369.6,100,370,100,370.9
		 M367.6,107.6c0-0.5,0.1-1,0.1-1.5c-0.5,0.1-1.1,0.4-1.6,0.5C366.4,107.1,366.7,107.5,367.6,107.6 M473.7,483.5
		c-0.5-0.2-1.1-0.4-1.6-0.6c-0.1,0.4-0.2,0.6-0.4,1C472.3,484,473.1,484,473.7,483.5 M106.6,380.2c0-0.6,0-1.3-0.1-2
		c-0.4,0.1-0.7,0.2-1,0.4C105.6,379.1,105.9,379.5,106.6,380.2 M46.6,345c-0.4,0.2-0.6,0.6-1,1c0,0,0.2,0.2,0.4,0.4
		C46.3,346,46.6,345.8,46.6,345 M367.2,488.3c-0.7,0.2-1.3,0.5-2.1,0.7c0.1,0.4,0.2,0.6,0.4,1C366.2,489.6,366.8,489.3,367.2,488.3
		 M105.3,370.7c-0.2,0.4-0.5,0.7-0.7,1C104.9,371.6,105.1,371.3,105.3,370.7 M369.4,497.9c-0.1-0.4-0.1-0.9-0.2-1.2
		C369,497.1,368.9,497.6,369.4,497.9 M66.4,355.3c0,0.5-0.1,1.1-0.1,1.6c0,0.1,0.6,0.1,1,0.2C67.1,356.7,67,356.1,66.4,355.3
		 M496.9,493.9c0.4-0.1,0.9-0.1,1.2-0.2C497.7,493.5,497.3,493.4,496.9,493.9 M83.5,378.6c0.2-0.7,0.4-1.5,0.6-2.2
		c-0.2,0-0.6-0.1-0.9-0.1C83.1,376.9,83.1,377.6,83.5,378.6 M93.3,361.9c-0.4-0.2-0.7-0.5-1-0.7C92.4,361.6,92.7,361.9,93.3,361.9
		 M135.6,381.7c0.7,0.2,1.6,0.4,2.3,0.6c0-0.4,0.1-0.6,0.1-1C137.3,381.3,136.6,381.3,135.6,381.7 M44.7,324.3
		c0.1,0.4,0.1,0.9,0.2,1.2C45.1,325.1,45.2,324.6,44.7,324.3 M580.5,165.2c0.4-0.4,0.7-0.6,1-1c-0.1-0.1-0.4-0.4-0.4-0.4
		C580.7,164.1,580.5,164.5,580.5,165.2 M336.9,458.8c-0.4-0.4-0.9-0.6-1.2-1c-0.1,0.4-0.2,0.6-0.4,1
		C335.8,459,336.5,459.2,336.9,458.8 M262.3,144.4c0.4-0.2,0.6-0.6,1-0.9c-0.1-0.1-0.4-0.4-0.4-0.4
		C262.6,143.5,262.3,143.7,262.3,144.4 M177.4,200.7c0.4,0.2,0.7,0.4,1.1,0.6c0-0.5,0.1-1,0.1-1.6C178.4,200,178,200.1,177.4,200.7
		 M419.9,471.9c0.4-0.1,0.9-0.1,1.2-0.2C420.6,471.5,420.2,471.4,419.9,471.9 M429.3,470.2c0.5-0.2,1-0.4,1.6-0.6
		c-0.1-0.2-0.5-0.7-0.5-0.7C429.9,469.2,429.4,469.6,429.3,470.2 M175.2,194.6c-0.6-0.1-1.2-0.4-1.8-0.5c0,0.2-0.1,0.6-0.1,0.9
		C174,195.1,174.6,195.1,175.2,194.6 M306.1,105.1c-0.4-0.4-0.6-0.6-1-1c0,0-0.2,0.2-0.4,0.4C305.1,104.7,305.4,105.1,306.1,105.1
		 M87.9,346.3c0.2,0.2,0.4,0.4,0.6,0.6c0.1-0.4,0.1-0.6,0.2-1C88.5,345.9,88.3,345.9,87.9,346.3 M38.7,343.8
		c0.4,0.1,0.9,0.1,1.2,0.2C39.7,343.8,39.3,343.6,38.7,343.8 M677.5,259.8c0.4-0.1,0.7-0.4,1.1-0.5
		C678.1,259.3,677.7,259.3,677.5,259.8 M670.8,242.1c0.1-0.4,0.4-0.7,0.5-1.1C671,241.2,670.8,241.4,670.8,242.1 M34.3,338.8
		c-0.4-0.2-0.6-0.5-1-0.7C33.6,338.4,33.7,338.8,34.3,338.8 M161.8,190.1c-0.1,0.5-0.1,0.9-0.2,1.3
		C161.8,191.2,161.9,190.8,161.8,190.1 M425,471.2c0.2-0.2,0.5-0.4,0.7-0.6c-0.1-0.1-0.2-0.2-0.4-0.4
		C425,470.4,424.9,470.5,425,471.2 M484.3,470.5c0.1,0.4,0.4,0.7,0.5,1.1C484.8,471.2,484.8,470.8,484.3,470.5 M352.5,483.9
		c0.4-0.1,0.7-0.1,1.1-0.2C353.2,483.5,352.8,483.5,352.5,483.9 M177.8,427.2c0.1,0.4,0.2,0.7,0.2,1.2
		C178.2,428.1,178.3,427.6,177.8,427.2 M362.4,498.4c-0.1,0.5-0.1,0.9-0.2,1.3C362.4,499.4,362.5,499.2,362.4,498.4 M96.1,360.5
		c-0.2,0-0.5,0.1-0.7,0.1c0.1,0.4,0.1,0.6,0.2,1C95.8,361.3,96,361.2,96.1,360.5 M678.9,255.3c0.1-0.1,0.2-0.2,0.5-0.4
		C679.2,254.9,679.1,254.9,678.9,255.3 M255,148.5c-0.1,0.1-0.2,0.2-0.4,0.4C254.7,148.8,254.9,148.8,255,148.5 M373.1,107.7
		c-0.2,0-0.4,0-0.6,0C372.7,107.9,372.8,107.9,373.1,107.7 M175,205.6c-0.2-0.1-0.5-0.1-0.7-0.2C174.4,205.6,174.6,205.7,175,205.6
		 M664.8,218.3c-0.1,0.1-0.2,0.2-0.4,0.4C664.4,218.7,664.5,218.7,664.8,218.3 M666.7,246.5C666.8,246.3,667,246.3,666.7,246.5
		 M224.5,187c0.1,0.2,0.1,0.4,0.2,0.6C224.8,187.4,224.9,187.1,224.5,187 M360.2,496c-0.1,0.1-0.2,0.2-0.4,0.4
		C359.9,496.2,360.1,496.2,360.2,496 M521.2,478.4c-0.2,0-0.4,0-0.6,0C520.7,478.5,520.8,478.5,521.2,478.4 M475.9,482.8
		c0.1-0.1,0.2-0.2,0.4-0.4C476.1,482.5,476,482.5,475.9,482.8 M468.8,484.2C468.7,484.1,468.7,484.1,468.8,484.2 M477.4,472.5
		C477.5,472.6,477.5,472.6,477.4,472.5 M49.5,344.3c-0.1,0.1-0.2,0.2-0.4,0.4C49.2,344.6,49.4,344.6,49.5,344.3 M35.3,341.1
		c-0.1,0.1-0.1,0.2-0.2,0.5C35.2,341.5,35.3,341.5,35.3,341.1 M218.2,439.2c0.2,0,0.5,0,0.7,0C218.8,439.1,218.7,439,218.2,439.2
		 M255.1,446.8c0.2-0.1,0.4-0.2,0.6-0.4C255.5,446.5,255.2,446.5,255.1,446.8 M237.6,448.8C237.5,448.7,237.5,448.7,237.6,448.8
		 M135.4,385.2C135.4,385.2,135.5,385.2,135.4,385.2 M77.4,382C77.5,382.1,77.5,382.1,77.4,382 M486.7,465.9
		c-0.1,0.1-0.1,0.2-0.2,0.5C486.5,466.3,486.7,466.3,486.7,465.9 M244.7,470.3C244.8,470.2,245,470.2,244.7,470.3 M4.5,324.5
		c0.1,0.5,0.1,0.9,0.2,1.3c0.5-0.1,1.1-0.1,1.6-0.2C6.1,325,5.8,324.4,4.5,324.5 M262,146.9C262,146.9,262.1,146.8,262,146.9
		 M290.1,139.5C290.1,139.5,290.2,139.4,290.1,139.5 M259.8,146.9C259.8,146.9,259.6,147,259.8,146.9 M288.9,142
		C288.9,142,289,141.9,288.9,142 M587.5,173.7C587.5,173.7,587.6,173.8,587.5,173.7 M240.1,460L240.1,460 M107.8,386.6
		C107.8,386.6,108,386.6,107.8,386.6 M169.2,427C169.2,427,169.1,427.1,169.2,427 M170.3,417.2L170.3,417.2 M373.4,114
		C373.4,114,373.4,113.9,373.4,114 M368.4,113.9C368.4,113.9,368.5,113.7,368.4,113.9 M370.9,112.6L370.9,112.6 M41.9,347.5
		L41.9,347.5 M94.5,348.7L94.5,348.7 M89.6,349.9L89.6,349.9 M636.3,221.5C636.3,221.5,636.4,221.4,636.3,221.5 M670.6,237.3
		C670.6,237.3,670.8,237.4,670.6,237.3 M49.2,341.5C49.2,341.5,49.1,341.4,49.2,341.5 M718.6,242.3l-0.4-0.1
		C718.2,242.2,718.2,242.5,718.6,242.3 M43.1,345L43.1,345 M85.8,345C85.8,345,85.9,345,85.8,345 M176.3,198.3
		C176.3,198.3,176.5,198.1,176.3,198.3 M248.6,468.6L248.6,468.6 M246.2,467.4L246.2,467.4 M418.7,463.6
		C418.7,463.6,418.8,463.7,418.7,463.6 M334.2,463.8C334.2,463.8,334.1,463.7,334.2,463.8 M346.5,483.4
		C346.5,483.4,346.4,483.3,346.5,483.4 M77.3,372C77.3,372,77.4,372,77.3,372 M367.3,491.7C367.3,491.7,367.4,491.8,367.3,491.7
		 M505.5,490.6L505.5,490.6 M522.6,486.9L522.6,486.9 M81,374.4L81,374.4 M167.9,204.3C167.9,204.3,168,204.4,167.9,204.3z"/>
	<path d="M580.5,470.8c-0.5-3.1-0.7-6.1-0.9-9.3c10.2,0.2,10.2,0.2,13-4.6c-1.5-1.1-3.1-2.3-5.1-3.9c6.4-2.8,11.5-7.7,18.8-6.7
		c1.7,0.2,3.4,2.1,5.1,2.1c3.4,0,5.4-2.1,8-4.8c3.1-3.4,8.8-4.3,15-7c-1.5,2.6-2,3.5-2.2,3.9c1.8,2.8,3.4,5.3,5.5,7.8
		c-1.2,1.8-2.9,3.4-5.1,4.6c-2.3-2.9-4.3-5.4-5.9-7.5c-2.9,1.6-5.4,2.6-7.3,4c-1.6,1.2-4.8,2.8-0.6,5c0,0,0,0,0.1,0.5
		c1.8,1.6,3.5,2.6,5.4,3.7c-1.8,1.1-3.7,2.1-5.5,3.2c-3.7,2.2-7.2,4.6-11,6.6c-7.3,4-14.7,7.8-22.6,11.4c0-1.5,0.6-2.7,1.3-4.3
		c-1.3-0.2-2.4-0.5-3.5-0.7c1.3-0.7,2.7-1.5,4.8-2.2c1.3,0,2,0,2.4-0.1c-0.6-0.4-1.1-0.7-1.7-1.1c5.7-3.3,11.5-6.5,17.7-9.4
		c0.9,1.7,1.3,3.1,1.8,4.9c4.6-4,8.4-7.3,4.4-13.7c-1.7,3.2,0.9,9.7-6,8.2c0.5-0.9,1.1-1.7,1.7-2.7c-4.3-2.7-8-0.7-11.4,1.5
		C591.2,463.8,586.1,467.2,580.5,470.8 M597.1,452.2c0.9,0,1.7,0,2.6,0c-0.2-0.7-0.4-1.5-0.6-2.1C598.5,450.6,597.7,451,597.1,452.2
		 M602.7,453.8c0.1,0.6,0.2,1.1,0.4,1.7c0.5-0.2,0.9-0.5,1.3-0.7C604.1,454.3,603.7,453.9,602.7,453.8 M608.2,453.5
		c0.4-0.1,0.7-0.1,1.2-0.2C609.1,453.2,608.6,453.1,608.2,453.5 M600.5,468.6c-0.1-0.4-0.1-0.9-0.2-1.2
		C600.2,467.7,600.1,468.2,600.5,468.6 M592.1,472.7C592.2,472.6,592.3,472.6,592.1,472.7z"/>
	<path d="M540.2,488.8c9.8-4.5,19.7-9.1,29.5-13.6c-0.1-0.4-0.2-0.7-0.4-1.2c-2,0.5-3.9,1.2-5.9,1.2c-1.5,0-2.8-1-4.3-1.5
		c0.2-1,0.5-2.1,0.7-3.1c6.5,0,12.8,0,19.7,0.2c-6.8,4.5-14.2,8.8-21.2,13c1.6,1.5,3.3,2.8,4.9,4.3c-1.7,1.6-3.2,3.9-5.1,4.8
		c-8.7,3.2-17,7.5-27,6c-3.5-0.5-7.7,2.9-12.1,4.6c-0.5,0-0.7-0.2-0.7-0.6c-0.4-1.3-0.7-2.2-0.6-3.2c1.3-0.5,2.3-0.7,3.2-1.2
		C527,494.9,535.2,495.3,540.2,488.8z"/>
	<path d="M579.6,136.7c5.1,1.2,10.3,2.9,15.3,4.6c0-0.2,0.1-0.5,0.1-0.7c-4.2-3.2-8.1-8.2-12.7-9.1c-5.9-1.1-9.3-3.9-13.7-9.5
		c5.6,2,9.7,3.4,14.2,4.6c2.2,0.7,3.8,1.7,6.2,3.1c3.9,2.3,7,4.4,10.2,7c0.1,0.9,0.2,1.1,0.2,1.8c-3.9,4-0.9,6.1,2.2,8.4
		c-1.5,0.4-2.4,0.6-4.2,1c1.6,1.3,2.9,2.4,4.2,3.7c-2.4,1.6-4.9,3.1-7.3,4.6c-0.4-0.4-0.7-0.9-1.1-1.2c0.4-2.1,0.9-4.3,1.3-7.2
		c-4.6-2.1-9.4-4.2-14.7-6.4c-0.4,0-0.4,0-0.4,0C579.5,140,579.5,138.7,579.6,136.7 M598.6,151.8
		C598.6,151.8,598.5,151.8,598.6,151.8z"/>
	<path d="M502.9,509.6c-1-3.1-1.6-5.9-2-7.8c1.8-1.8,3.9-3.3,5.3-5.4c2.4-3.7,14.6-7.2,19.1-4.6c-2,1.5-4.2,2.4-6.6,3.2
		c-0.6-0.4-1-0.5-1.3-0.6c0.5,0.4,1,0.6,1.3,1.3c-1,1.5-1.8,2.6-2.9,4c-1.7,1.5-3.2,2.6-5.7,4.5c2.9,0.4,4.3,0.5,5.7,0.7
		c0.1,0.1,0.2,0.4,0.2,0.4C512,506.6,507.7,508.1,502.9,509.6 M519,491.8L519,491.8z"/>
	<path d="M738.2,363.9c6.4,0.1,4.3-6.7,7.6-9.3c3.5-2.7,6.4-6.4,10.6-10.9c-0.1-3.5,0.4-4.3,6.2-6.2c0.5,1.1,0.7,1.7,0.9,2.3
		c0.2,0,0.4,0,0.6-0.1c0-1,0-2,0-2.8c0,0,0,0.1,0.4,0.1c1,0,1.6,0.1,2.1,0.1c0.1,1,0.9,2.4,0.5,2.8c-8.4,7.8-16.9,15.4-25.4,23.1
		c-0.5,0.5-1.6,0.2-2.8,0.6C738.3,363.8,738.2,363.9,738.2,363.9z"/>
	<path d="M301.2,98.6c-0.6,0.4-1.2,0.7-2.4,0.7c-2.1-1-3.8-1.6-5.4-2.3c-0.1,0.4-0.4,0.6-0.5,1c1.3,1,2.7,2,4,2.9c0,0,0,0-0.4,0.2
		c-0.5,2.8-0.5,5.5-0.5,8.2c-1.6,0.9-3.1,1.7-5,2.2c-0.4-0.2-0.2-0.9-0.1-1c0-0.4-0.1-0.7-0.6-1c-1.3-2.2-4.4-4.8-5.6-5.1
		c0.1-0.6,0.1-0.9,0.5-1.2c0.5-0.6,0.7-1,1-1.5c0-0.1-0.1-0.4,0.2-0.6c0.5-1,0.7-1.8,0.9-2.9c0-0.7,0-1.2,0-1.6
		c4-1.7,8.2-3.5,11.7-5c1.1,0.7,2,1.3,3.5,1.8c1.1-0.7,1.5-1.5,1.7-2.1c0,0,0.6-0.2,0.9-0.2c1.6,1.1,2.9,2.3,4.5,3.8
		c-1.2,1.1-2.4,2.2-3.9,3.1C303.2,92.9,302.6,98,301.2,98.6 M289.7,100.7C289.6,100.7,289.6,100.7,289.7,100.7z"/>
	<path d="M700.4,217.7c0.1-2,0.2-3.9,0.4-6.4c1.7,1.7,3.3,3.9,5.4,5.9c2.1,1.8,4.8,3.1,6.6,5.1c1.3,1.3,1.7,3.7,2.8,6.5
		c6.2-1.1,5.4,7,10.8,10.6c-2.4-0.1-3.2-0.2-4.4-0.2c-0.5,0-0.4,0-0.5-0.4c-1.3-1.5-2.4-2.4-3.9-3.8c-1.1-0.4-2.1-0.5-3.1-1.1
		c-0.6-1.3-1.2-2.3-2-3.1C708.5,226.4,704.4,222.1,700.4,217.7z"/>
	<path d="M383.5,82.7c2.9,1.5,6,2.8,10.5,5c-1.6-2.7-2.2-3.7-3.2-5.3c5.9,1,11,2,16.6,2.7c0.9,0.1,1.2,0.4,1.7,0.9
		c-0.6,1.1-1.3,2.6-2.1,2.6c-6.5,0-13-0.4-19.7-0.2c-3.4,0.1-7.7,2.9-8.7-3.7C380.6,83.5,382.1,83.2,383.5,82.7z"/>
	<path d="M165.1,459.5c1.1,0.2,2.2,1,3.5,2c1.6-3.8,3.1-7.5,4.8-11.9c4.4,5.6,3.8,12.7,11,13.9c-0.9,0.5-1.5,1-2.4,1.5
		c-2.6,0.4-4.8,0.9-7.1,1.1C170,466.6,166.4,465,165.1,459.5z"/>
	<path d="M599.1,136.4c-3.2-2.1-6.2-4.2-9.7-6.4c2.6-2.8,5.4-5.1,8.3-0.2c0.5,0.7,1.5,1.5,2.3,1.6c9.3,1,13.3,8.6,18.2,14.6
		C611.4,142.9,605.3,139.7,599.1,136.4z"/>
	<path d="M599.2,136.9c6.1,2.7,12.4,6,18.8,9.3c0.4,0.1,0.6,0.6,0.6,0.9c-0.6,1.3-1.2,2.4-1.8,4.4c-2.6,0-5.5-0.4-7.2-2
		c-3.7-3.4-6.7-7.5-10.2-11.3C599.3,138.1,599.3,137.7,599.2,136.9z"/>
	<path d="M44.4,377.3c5.7-4.9,0.6-6-3.4-7.2c5.7-2.8,9.1-1.5,9.2,3.4c5.4-1.3,7,2.4,8.2,7.2c-1.6,1.2-2.8,1.5-4.2,1.8
		c-0.2,0-0.5-0.2-0.6-0.4c-0.5-0.1-0.7,0-1.5,0c-2.6-1.5-4.8-3.1-7-4.5C45,377.7,44.6,377.3,44.4,377.3z"/>
	<path d="M726.3,246.5c1.8-0.2,3.8-0.6,6-1c4.5,4.5,8.8,9.1,13.2,13.9c-6.4,5.3-11.7,4.3-13.2-12.6c-1.5,2.4-2.2,4-3.4,5.4
		c-0.2,0.4-1.7-0.4-2.3-1.1C726.8,249.3,726.5,247.8,726.3,246.5z"/>
	<path d="M50,267.6c0.4-1.1,0.6-2.1,1-3.5c1.2-2.4,2.2-4.5,3.5-6.4c2.1-2.9,4.4-5.7,7-8.8c0.5,1.5,0.5,3.1,0.9,5.3
		C62.8,260.4,57.6,265.8,50,267.6z"/>
	<path d="M54.3,382.6c1.2-0.4,2.4-0.6,3.9-1.3c5,2.7,9.7,5.9,14.3,8.9c2.3,1.5,4.6,2.9,7.7,4.9c0-0.1,0,1,0,2.7
		c-6-2.3-11.6-4.5-17.9-6.7c-0.7-0.5-1-1-0.9-1.7c1.1-0.4,1.7-0.6,2.6-0.6c0.4,0.2,0.6,0.2,0.7,0.2c0.1,0,0.4-0.4,0.4-0.4
		c-1.3-3.4-2.6-7-7.7-3.5C56.2,384.2,55.2,383.3,54.3,382.6z"/>
	<path d="M618.6,454.5c-4.2-2.2-1-3.8,0.6-5c2-1.5,4.4-2.4,7.3-4c1.6,2.1,3.4,4.5,5.4,7.3c0.1,0.4-0.2,0.6-1,0.6
		c-2.4-0.1-4.3-0.1-6.6-0.1c-0.1,2-0.2,3.5-0.4,5.3l0,0c-1.7-1.1-3.5-2.1-5-3.7c0.5-0.9,0.9-1.2,1.1-1.6c-0.4-0.1-0.9-0.4-0.9-0.4
		C619,453.5,618.8,454,618.6,454.5z"/>
	<path d="M504.5,98.9c4.9,1.6,9.4,3.3,14.3,5.1c0.4,0.1,0.2,0.1,0.2,0.1c-1.1-1.2-3.7,2.8-4-1.2c0-0.5-1.8-1.5-2.4-1.2
		c-5.6,2.4-10.6,0-15.8-1.8c-1.6-0.6-2.9-1.6-3.8-3.5c1.3,0.2,2.7,0.4,4.3,0.6c0.6,0,0.7,0.1,1.6,0.4c1.6,0.5,2.7,0.9,3.7,1.1
		C502.9,98.7,503.5,98.9,504.5,98.9z"/>
	<path d="M157.7,158.8c-7.8,5.7-15.7,11.5-23.4,17.2c-0.4-0.5-0.7-1-1.1-1.5c7.7-5.4,15.3-10.8,23.6-16
		C157.5,158.5,157.7,158.8,157.7,158.8z"/>
	<path d="M284.5,104.9c1.3-0.1,4.4,2.6,5.7,5c0.4,0.2,0.4,0.9,0.4,0.9s-0.1,0.6-0.1,0.9c-1.5,0.7-2.9,1.2-4.4,1.7
		c-1.2,0.4-2.6,0.7-2.9,0.9c-2.1-3.1-3.9-6-5.7-9.3c1.2-0.4,2.6-0.2,4.6-0.4C283.5,104.8,284,104.9,284.5,104.9 M287.9,111.2
		l-0.1,0.2C287.8,111.4,288,111.4,287.9,111.2z"/>
	<path d="M331.2,88.7c-2.7,4.9-6.2,6-9.7,2.7c-1-1.5-1.6-2.8-2-4.5C324,86.3,328.6,82.5,331.2,88.7z"/>
	<path d="M97.9,415.6c0-1.6,0.4-2.9,1.3-4.4c3.1,1.8,5.6,3.7,9.2,6.5c0-2.8,0-3.7,0-4.6c0.9,0.9,1.6,1.8,2.6,3.1
		c-0.1,0.5-0.4,0.4-0.5,0.5C106.1,420.6,102.2,419.4,97.9,415.6z"/>
	<path d="M383.7,82.3c-1.6,0.9-3.1,1.2-4.8,2c-3.8-0.1-7.3-0.6-11.5-1.2c0,0.1-0.2-1-0.6-2.4c4.4-0.7,8.9-1.1,13.9-1.6
		c1,0.5,1.5,1,2.2,1.5C383.4,81,383.5,81.4,383.7,82.3z"/>
	<path d="M578.3,482c-1.5,0.4-3.1,0.6-4.5,1c0,0,0,0.7,0.1,1.1c0-0.2,0-0.4-0.1-0.6c-0.1-0.1-0.5-0.2-0.5-0.2c-0.7,1-1.3,2-2.2,2.9
		c-0.9,1-2,2-2.8,2.8c-0.2-2.4-0.4-4.2-0.5-6.7c3.8-2,8.6-4.4,13.7-6.6C580.6,478,579.5,480.1,578.3,482z"/>
	<path d="M684.5,428.3c-5.6,4.2-11.1,8-16.8,11.6c-0.4-0.6-0.9-1.3-1.2-2C671.7,433.4,677.5,429.6,684.5,428.3z"/>
	<path d="M331.6,88.7c-2.9-6.2-7.7-2.3-12.1-2.2c3.8-4.5,9.1-5.7,14.9-3.8c-0.6,2.2-1,3.7-1.5,5.1C332.7,88.1,332.3,88.4,331.6,88.7
		z"/>
	<path d="M157.6,157.3c1.2-4.4,7.6-9.4,15.5-11.7c-5,4.4-9.2,8.1-14.1,11.7C158.1,157.3,157.9,157.3,157.6,157.3z"/>
	<path d="M488.3,512.6c0.9-7,4.6-8.2,11.6-3.3C496.2,510.7,492.4,511.6,488.3,512.6z"/>
	<path d="M766.8,336.7c-0.7,0.4-1.3,0.4-2.3,0.2c0.7-2.3,2-4.6,3.4-7.5c2.3,1.1,4.8,2.3,7.3,3.5c0,0.5-0.1,1-0.1,1.5
		C772.3,335.1,769.6,335.8,766.8,336.7z"/>
	<path d="M54,382.6c1.2,0.7,2.2,1.6,3.8,2.7c1.1,0.7,1.6,1.2,2.2,1.7c-7.1,0.9-11.6-2.8-15-8.9c2.2,1.1,4.4,2.6,7.2,4.2
		c0.9,0.1,1.1,0.1,1.3,0.1C53.5,382.4,53.9,382.6,54,382.6z"/>
	<path d="M578.6,481.9c0.7-2,2-3.9,3.2-6.4c0.1-0.4,0.2-0.6,0.5-0.6c1.3,0.2,2.4,0.5,3.8,0.7c-0.7,1.5-1.2,2.7-1.7,4.3
		C582.7,480.9,581,481.4,578.6,481.9z"/>
	<path d="M284.6,104.6c-0.6,0.2-1.1,0.1-2.1,0c-0.7-0.6-1-1.3-0.9-2.6c0.5-1.5,0.6-2.3,0.6-3.3c1.3-0.6,2.8-1.2,4.5-2.1
		c0.4,0.2,0.4,0.7,0,1.7c-0.5,1.3-0.7,2.1-0.9,2.9c0,0,0,0.2-0.2,0.5c-0.5,0.7-0.7,1.1-1,1.5C284.7,103.7,284.7,104,284.6,104.6z"/>
	<path d="M624.4,458.6c-0.2-1.6-0.1-3.2,0-5.1c2.3,0,4.2,0,6.4,0C629.2,455.1,627,456.7,624.4,458.6z"/>
	<path d="M60.3,387c-0.7-0.5-1.2-1-2-1.8c4.5-3.8,5.7-0.1,7.1,3.2c0,0.1-0.2,0.4-0.4,0.4c-0.1,0-0.4,0-1.1-0.6
		c-1.3-0.7-2.2-0.9-3.1-1.1C60.9,387.2,60.5,387,60.3,387z"/>
	<path d="M540.4,105.9c0.9-1.7,1.7-3.4,2.4-5c0.7,0.5,1.5,1.1,2.2,1.6c-1.2,1.1-2.6,2.2-4.3,3.4
		C540.4,105.9,540.4,105.9,540.4,105.9z"/>
	<path d="M282,99.1c0.2,0.7,0.1,1.7-0.1,2.8C281.8,101.1,281.8,100.2,282,99.1z"/>
	<path d="M502.3,98.2c-1,0.1-2-0.2-3.3-0.7C500,97.3,501.1,97.6,502.3,98.2z"/>
	<path d="M180.7,467.2c0.6-0.1,1.3,0,2.2,0.5C182.4,467.9,181.6,467.6,180.7,467.2z"/>
	<path d="M720.9,241.3c-0.4-0.1-1.1-0.5-2.1-1.5c-0.1-0.4,0.1-0.6,0.5-0.4c1,0.1,1.5-0.1,2.1-0.4h-0.1
		C721.1,239.7,720.9,240.2,720.9,241.3z"/>
	<path d="M763.7,336.9c0.2,1,0.2,2,0.2,2.9c-0.2,0-0.4,0-0.6,0.1c-0.1-0.6-0.2-1.2-0.5-2.3C763,337.2,763.5,336.9,763.7,336.9z"/>
	<path d="M730,242.5c-0.6,0.2-1.5,0.1-2.3-0.4C728.2,241.9,729,242.1,730,242.5z"/>
	<path d="M587.9,471.9c0.7,0.1,1.3,0.5,2,0.9c-0.6,0-1.2,0.1-2.1,0C587.5,472.4,587.6,472.3,587.9,471.9z"/>
	<path d="M303.9,91.4c0,0.6-0.2,1.2-1,2C302.9,92.8,303.2,92.1,303.9,91.4z"/>
	<path d="M518.6,503.7c-0.5,0.5-1,0.9-2,1.3c-0.4,0.1-0.5-0.1-0.4-0.5c0.7-0.6,1.3-0.9,2.1-1.1C518.2,503.3,518.5,503.6,518.6,503.7
		z"/>
	<path d="M738.3,363.8c-0.1,0.4-0.2,0.6-0.5,1c0.2-0.2,0.6-0.5,0.6-0.9C738.2,363.9,738.3,363.8,738.3,363.8z"/>
	<path d="M60.9,387.7c0.9-0.2,1.7-0.1,2.8,0.5c-0.4,0.6-1,0.7-2.1,0.9C61,388.7,61,388.3,60.9,387.7z"/>
	<path d="M157.5,157.5c0.5-0.1,0.7-0.1,1.3-0.1c0.1,0.4-0.1,0.7-0.7,1.2c-0.4,0.1-0.6-0.1-0.7-0.2
		C157.1,158.3,157.3,157.7,157.5,157.5z"/>
	<path d="M685.3,425.8L685.3,425.8z"/>
	<path d="M464.4,458.1c0.1-0.9,0.1-2.3,0.5-2.4c4.9-1.7,9.9-3.4,14.9-4.6c10.6-2.6,21.4-5,32.2-7.5c5.6-1.3,10.2-5.6,16.3-6
		c0.7,1.1,1.5,2.2,2.4,3.7c-8.2,3.9-16.4,8-24.6,11.9c0.1,0.5,0.4,0.9,0.5,1.3c2-0.4,3.9-0.7,6.4-1.1c-1,1.3-2.4,2.6-5.4,4.9
		c-1.1,2.7-1.7,8.3-8.3,9.4c-0.5-0.2-0.5-0.9-0.5-1.2c0-0.2,0-0.9,0-1.3c0-1,0-1.5,0.4-2.1c0.6-0.6,0.9-1.1,1.1-1.7
		c-0.9,0.6-1.7,1.2-2.9,1.7c-0.2,0-0.9,0-0.9,0c-0.5,0-1.1,0-2.1-0.2c-0.6-0.6-0.9-0.9-1-1.1c-0.2,0.5-0.4,1-0.6,1.3
		c0,0-0.6,0-1.2-0.2c-2.4-0.5-4.3-0.7-6.1-1c-1.1,0.5-2.3,1.1-3.5,2.1c-0.2,0.5-0.2,0.5-0.2,0.5c-2.7,1.3-5.4,2.7-8.7,4.5
		c-0.5,0.4-1.1,0.4-1.1,0.4c-4.8-1-6.7,1.6-6.6,8.1c-3.2-3.5-5-5.9-7.1-8c-0.7-0.7-2-1.1-3.2-2.1c8.1-3.4,18.2,0.4,25.2-7.1
		c0-0.7-0.1-1.6-0.1-2.3C474.9,458.1,469.7,458.1,464.4,458.1z"/>
	<path d="M97.6,346.4c8.9,4.9,17.9,10.2,26.5,15.8c1.5,1,2,3.7,2.6,6.4c-3.8,3.5-7.3,3.4-11.3,1.2c-1-0.6-2.8,0.2-4.3,0.4
		c-4.4-1.6-8.9-3.1-11.3-3.9c-1.1-5.4-1.8-9.3-2.7-13.1c0.7,0.9,1.5,1.6,2.2,2.4c-3.7,2.1-7.3,4.2-11.3,6.4
		c-1.3-2.7-2.6-5.4-3.9-8.4c0-0.5,0-0.5,0-0.5c2.7,0.6,5.3,1.1,8.1,1.7C93.6,352.4,95.6,349.7,97.6,346.4z"/>
	<path d="M600.2,403.1c3.4-2.2,6.8-4.5,10.9-6.5c5.6,2.3,7.7,1.3,9.3-3.8c-2,0.1-3.9,0.2-5.9,0.4c1.7-1.2,3.5-2.4,6-3.4
		c4.2,2,4.2,2,7.2-2.1c-1.2-0.2-2.3-0.5-3.5-0.7c6.6-4.2,13.1-8.3,20.1-12.7c0.2,1.2,0.5,2.4,1,4c0.2,0.4,0.2,0.2-0.2,0.1
		c-1,0.9-1.5,1.7-2,2.7c0,0,0-0.1-0.2-0.5c-2.4,2.7-9.5-0.4-8.8,6.5c1.3,0,2.8,0,4.2,0c-0.9,1.2-1.3,2.7-2.4,3.5
		c-5,4.2-9.7,8.8-15.3,12.1c-3.8,2.3-8.8,2.7-14.1,3.8C603.7,405.5,602,404.2,600.2,403.1z"/>
	<path d="M50,268.1c7.7-2.3,12.8-7.7,12.8-13.8c2.2-1.6,4.5-2.4,6.4-4c2.7-2.3,5.1-5.1,7.7-7.7c0.9-0.9,1.7-1.6,2.7-2.4
		c0.5,0.2,1,0.5,1.5,0.7c-1.5,3.1-2.2,6.7-4.4,8.9C68,258,59.2,266,52.1,275.8c-0.4,0.5-1,0.7-1.5,1.1C50.2,274,50,271.3,50,268.1z"
		/>
	<path d="M223.7,471.5c5.3,1.3,10,2.6,14.7,3.9c1.3,0.4,2.4,1.2,4.3,2.3c-8.4,3.4-34.4-5.7-43.4-15.2c5.3,0.9,11.4,0,13.5,2.4
		C215.8,468.7,219.9,469.2,223.7,471.5z"/>
	<path d="M111,370.5c1.5-0.6,3.3-1.3,4.3-0.9c3.9,2.2,7.5,2.3,11.5-0.7c4-1.7,6.7-0.9,8.6,3.2c-1.1,1.8-2.3,3.3-3.5,5
		c0,0.4,0,0.4,0,0.4c-1,0.4-2,0.7-3.3,1.2c0.2-1.7,0.9-3.5,1.6-5.3c-0.6-0.2-1.2-0.6-1.8-0.9c-1.5,2.8-2.9,5.6-4.3,8.4
		c0.5,0.2,1.1,0.6,1.6,0.9c-2.3,0-4.8,0-7.1,0c0.6-1.8,1.2-3.8,2-6.2C116.6,374.5,109.7,380.3,111,370.5 M114.1,373.2L114.1,373.2z"
		/>
	<path d="M95.1,372.6c1.6,2,2.9,4,4.6,5.9c2.1,2.3,4.4,4.4,7,6.8c-1,0.7-2.7,2-3.9,2.8c-5.9-2.4-11.3-4.6-18.1-7.5
		c1.3-2,2.6-3.8,4.3-6.2c-0.4-1.1-1-3.2-1.7-5.6c4.3-0.1,1.7,7.8,7.5,4C95.1,372.6,95.1,372.6,95.1,372.6z"/>
	<path d="M464.4,458.1c5.3,0,10.4,0,15.7,0c0,0.7,0.1,1.6,0.1,2.3c-7,7.5-17.1,3.7-25.6,7c-3.2,1-6,1.5-8.9,2
		c-0.1-0.4-0.2-0.9-0.4-1.2c5-2.3,9.9-4.6,15.7-7.3C462.7,459.7,463.5,458.9,464.4,458.1C464.5,458.1,464.4,458.1,464.4,458.1z"/>
	<path d="M599.8,403.1c2.2,1.1,4,2.3,6.1,3.5c-1.8,2.8-4,5.5-6.2,8.2c0.4,0.6,0.6,1.2,1,1.8c-3.1-0.5-6-0.9-9.4-1.3
		c-1.3-1-2.4-1.8-4.3-3.5C591.2,409,595.3,406.1,599.8,403.1 M598.3,412.3C598.3,412.3,598.5,412.2,598.3,412.3 M599.7,408.5
		C599.7,408.5,599.8,408.7,599.7,408.5z"/>
	<path d="M700,217.7c4.5,4.4,8.6,8.8,12.6,13.1c0.7,0.7,1.2,1.7,1.5,3.2c-0.7,1.7-1.1,2.9-1.5,4.2c-3.7,0.4-4.9-1.6-5-5.5
		c-1-0.6-1.5-0.7-2-0.7c0.2,0.6,0.5,1.1,0.7,1.7c-1-0.9-2.8-2.1-2.7-2.7c2.1-7.5-5.3-7.8-8.2-11.4c-1.1-1.3-2-2.9-1.8-5.1
		C695.6,215.5,697.5,216.5,700,217.7z"/>
	<path d="M66.1,376.1c-2.3-1.2-4.3-2.6-6.4-4.3c1.8-4.4,3.9-8.4,6.4-13.3c3.5,5.1,6,8.7,7.7,11.1C70.8,372.1,68.6,373.9,66.1,376.1
		 M65.1,364.6L65.1,364.6z"/>
	<path d="M599.4,138.7c3.3,3.4,6.4,7.5,10,10.9c1.7,1.6,4.8,2,7.2,2.4c0.2,0,0.5,0.5,0.7,1c0,0,0.4,0,0.5-0.1
		c-0.2-0.1-0.7-0.4-0.9-0.4c-3.8,5.1-6.8,2.8-10.2-0.9c-0.7-0.9-3.2-0.1-5.1-0.1c-1.5-1.1-2.8-2.3-4.4-3.7c1.6-0.4,2.7-0.6,4.2-1
		C598.6,144.8,595.5,142.7,599.4,138.7z"/>
	<path d="M39.2,277c0.7,1.1,1.7,2.4,2.6,3.8c-0.5,0.4-0.9,0.7-1.3,1.1c1,0.1,2,0.4,3.1,0.5c0.6,0.7,1.1,1.3,1.7,2.1
		c-5.3,4.6-10.5,9.3-15.8,13.9c-0.5-0.2-1-0.6-1.5-0.9c0.5-2.4,1-4.9,1.3-7.3c0.4,0.2,0.6,0.6,1,0.9C33.5,286.5,36.4,281.8,39.2,277
		z"/>
	<path d="M750.9,274.6c-2.9-1.7-5.6-3.2-8-4.9c-0.6-0.5-0.7-2.4-0.2-3.1c0.5-0.7,2.4-1.2,3.1-0.9c5.5,3.2,11,6.4,16.1,9.9
		c1.6,1.1,2.1,3.8,3.1,5.7c-0.5,0.4-0.9,0.7-1.3,1.1C759.4,280,755.4,277.4,750.9,274.6z"/>
	<path d="M688.4,403.1c-1.1,1.3-2.3,2.8-3.5,4.5c-0.1,0.4,0,0.4-0.5,0.5c-2.2,1.7-4,3.3-5.7,4.9c0-0.1,0.1-0.1-0.4-0.1
		c-0.6,0.5-0.7,1-0.9,1.3l0.1-0.1c-3.5,2.7-6.8,5.6-10.6,7.8c-3.7,2.2-7.8,3.5-11.9,5.4c-0.2-0.5-0.4-1-0.6-1.5
		c11.3-7.8,22.4-15.5,33.9-23C688.4,403.1,688.4,403.1,688.4,403.1z"/>
	<path d="M399.6,93.8c-0.6,0.7-1.3,2.1-2,2.1C385.5,96,373.4,96,361.2,96c0-0.5,0-1,0-1.6c5.7-0.2,11.6-0.4,17.4-0.9
		c2.8-0.2,5.5-1.1,9.2-2.1C392.2,92.1,395.9,92.9,399.6,93.8z"/>
	<path d="M72.6,331.7c4.2,2.2,7.8,4.5,11.9,7.3c-2.7,2.1-5.7,3.8-8.9,5.7c-0.6-0.7-1.2-1.5-2.1-2.4c-0.4-0.4-0.4-0.4-0.4-0.4
		c-1.2-1-2.4-1.8-3.8-2.9C70.2,336.7,71.1,334.3,72.6,331.7 M76.9,338.9c-0.4-0.1-0.9-0.1-1.2-0.2C75.9,338.9,76.3,339.1,76.9,338.9
		z"/>
	<path d="M371.3,125.5c8.1-0.7,15.7-1.5,23.2-2.2c0.1,1,0.1,2.1,0.2,3.1c-11.7,0.6-23.4,1.3-35.1,2c0-0.6-0.1-1.1-0.1-1.7
		C363.2,126.2,367,125.8,371.3,125.5z"/>
	<path d="M516.1,499c0.9-1.1,1.7-2.2,2.7-3.7c0.1-0.4,0.2-0.4,0.2-0.4c2.2-1,4.4-2,6.7-3.3c4.5-1.2,8.9-2.1,13.9-2.9
		c-4.4,6.4-12.7,6-19,9.7c-0.9,0.5-1.8,0.9-3.3,1C516.5,499.3,516.4,499.2,516.1,499z"/>
	<path d="M403.4,464.3c3.1-4.4,7.2-2.2,11.7-2c-0.1,0.9-0.7,2.6-1.5,2.7c-6.5,0.7-7.1,4.4-4.5,9.5c-7.1,1.2-3.3-4.5-5.4-6.6
		c-0.4-0.1-0.4,0-0.4,0c0-0.2,0-0.5,0.5-1.1c0.9-1,1.2-1.6,1.6-2.2c-0.7-0.1-1.5-0.2-2.2-0.4C403.2,464.3,403.4,464.2,403.4,464.3z"
		/>
	<path d="M345.4,498.4c0.5,0.7,0.5,1.5,0.5,2.3c-6.4-0.9-12.6-1.7-19-2.6c0.1-0.9,0.2-1.7,0.4-2.6
		C333.3,496.6,339,497.6,345.4,498.4z"/>
	<path d="M684.7,407.9c2.1-0.4,4.2-0.7,7-1c0.7,0.1,1.1,0.6,1.1,0.6c-4.3,3.4-7.1,9.4-13.9,8.6c-0.5,0-0.9-0.7-1.3-1.6
		c-0.1-0.5-0.1-0.4,0.2-0.5c0.6-0.5,0.9-0.9,1-1.2c0,0-0.1,0,0.2,0.1C681,411.5,682.9,409.8,684.7,407.9L684.7,407.9z"/>
	<path d="M108.1,412.8c0.4,1.1,0.4,2.1,0.4,4.8c-3.5-2.7-6.1-4.6-9.1-6.8c-0.2-2.1-0.1-3.9,0.4-6.1
		C102.6,407.1,105.1,409.9,108.1,412.8z"/>
	<path d="M86.1,392.3c-2.6-1.8-5.3-3.7-8.1-5.9c1.5-1.6,3.1-2.8,4.9-4.2c1.5,1.6,3.4,3.7,5.7,6c0.4,0.2,0.4,0.2,0.4,0.2
		c0,0.9,0,1.8,0,3.2c0,0.5,0,0.5-0.5,0.5C87.4,392.3,86.8,392.3,86.1,392.3z"/>
	<path d="M244.2,458.3c-8.4-0.2-8.4-0.2-9.2-5.5c1.5,1.1,2.7,2,4.2,3.2c0.9-1.1,1.7-2,2.3-2.9c0.6-1,1.2-2.1,1.7-3.2
		c1.5,1.3,2.9,2.6,4.6,4.2c-1,1-2.1,2.2-3.3,3.9C244.3,458.2,244.2,458.3,244.2,458.3z"/>
	<path d="M68.2,343.5c-4-4-11.6-4.5-12.7-13.5c3.2,2.4,5.6,4.3,8.4,6.7c1.3,1,2.1,1.3,2.9,1.8c0.7,1,1.6,1.8,2.3,3.4
		C68.9,342.8,68.6,343.1,68.2,343.5z"/>
	<path d="M685.9,242.9c-2.2-1.1-4.5-2.3-6.7-3.4c2.9-1.6,4.8-3.3,6.8-3.7c1.7-0.2,3.9,0.5,5.4,1.5c2.3,1.6,2,3.2-1.1,3.7
		c-1,0.1-2,0-3.1,0.4c-0.1,0.4-0.1,0.2-0.4,0.5C686.3,242.2,686,242.5,685.9,242.9L685.9,242.9z"/>
	<path d="M31.3,349.2c-2.8-1.8-5.5-4-8.2-6.8c2.4-1.8,4.8-3.1,6.6-4.2C30.2,341.9,30.8,345.3,31.3,349.2z"/>
	<path d="M691.5,243.4c4.9,1.5,6.5,4.3,3.7,8.6c-1.5-0.2-2.8-0.6-4-0.9c-0.7,0.2-1.3,0.5-2.1,0.6
		C689.8,249.1,690.6,246.5,691.5,243.4z"/>
	<path d="M122.1,247.9c-2.9,2-5.6,3.7-8.2,5.5c-0.5-0.6-0.9-1.3-1.3-2c4.9-3.4,9.8-6.8,14.7-10.3c0.4,0.4,0.7,0.7,1,1.2
		C126.3,244.1,124.3,246,122.1,247.9z"/>
	<path d="M399.8,93.6c-3.9-0.6-7.7-1.5-11.9-2.3c-0.5-0.2-0.5-0.5-0.5-1.1c6.6,0.5,13.2,1.3,20.3,2.3c-0.1,1.3-0.7,2.6-1.1,3.4
		C404.5,94.9,402.3,94,399.8,93.6z"/>
	<path d="M545.5,148.4c2.9,1.1,5.3,2.2,8.3,3.7c-2.1,1.1-3.7,2-4.5,2.4c-3.5-2.9-6.6-5.4-9.7-8c0.5-0.5,1-1.1,1.3-1.6
		C542.4,146,543.8,147.3,545.5,148.4z"/>
	<path d="M631.9,209.5c1.2,1.3,0,6,4.6,1.7c0,2.6,0,4.3,0,6.2c-2.8-0.6-5.3-1.2-8.1-1.7C629.5,213.6,630.5,211.6,631.9,209.5z"/>
	<path d="M251.7,446c-2.8-0.7-5.6-1.3-9.2-2.2c1.2-2,2.1-3.4,3.7-5.9c2.2,2.8,3.8,5,5.5,7.7C251.7,446,251.7,446,251.7,446z"/>
	<path d="M638.5,386.9c-1.6,0.4-3.1,0.4-4.4,0.4c-0.6-6.8,6.4-3.8,8.9-6.5C641.6,383,640.2,384.8,638.5,386.9z"/>
	<path d="M101.4,227.7c2.4-2.9,4.8-5.9,7.2-8.8c0.6,0.6,1.3,1.1,2,1.7c-2.3,2.6-4.6,5.1-7.8,7.6C101.8,228,101.6,227.9,101.4,227.7z
		"/>
	<path d="M94.9,389.4c1.6-0.7,2.9-1.2,4.3-1.7c0.4,0.6,0.6,1.1,1,1.7c-2.3,1.3-4.6,2.7-7,4C93.6,392.1,94.1,390.9,94.9,389.4z"/>
	<path d="M68.1,343.8c0.5-0.7,0.9-1,1.3-1.6c1.1-0.4,1.8-0.4,3.2-0.4c0.4,0,0.5,0,0.5,0c-0.5,1.6-0.6,3.4-1.6,4.6
		c-0.6,0.7-2.3,0.6-3.7,0.9C68,346.4,68.1,345.3,68.1,343.8z"/>
	<path d="M227.2,446c2,2.8,3.9,5.6,6,8.4c-4-1.2-7.6-2.8-6.2-8.1C227.2,446,227.2,446,227.2,446z"/>
	<path d="M221,449.8c-1-2.3-1.8-4.5-3.5-8.7c2.8,1.5,5,2,5.1,2.7c0.2,1.5-0.7,3.2-1.2,5.3C221.1,449.6,221,449.8,221,449.8z"/>
	<path d="M527.3,488.7c-2.1-2.1-3.7-4.2-5.4-6.2c0.7-0.5,1.5-1,2.2-1.5C525.2,483.5,526.4,486,527.3,488.7z"/>
	<path d="M586.8,167.6c2.1,0.1,4.3,0.6,6.4,1.2c-0.1,0.6-0.4,1.1-0.5,1.7C590.3,171.1,587.1,174.2,586.8,167.6z"/>
	<path d="M296.2,109.2c-0.1-2.4-0.1-5,0.4-8c1.3,1.2,2.3,2.7,2.8,3.4C298.4,106,297.3,107.5,296.2,109.2z"/>
	<path d="M86.6,364c0.2,0.7,0.6,1.5,0.9,2.2c-2.2-0.4-4.3-0.7-6.5-1.1c0-0.6,0.1-1.2,0.1-1.8c1.8,0,3.5,0,5.3,0.4
		c-0.1,0.4-0.1,0.7-0.1,0.7L86.6,364z"/>
	<path d="M151.4,408.9c-2.9,0.4-5.5,0.5-8.1,0.7c0-1,0.1-1.8,0.1-2.8C146.1,407.6,148.9,408.2,151.4,408.9z"/>
	<path d="M712.6,238.1c0.2-1.2,0.6-2.4,1.5-3.7c1.3,0,2.3,0.1,3.4,1c0.6,1.7,1.1,2.8,1.6,3.8c0,0-0.2,0.2-0.2,0.4
		c-0.6,0-1.2-0.1-2.4-0.4c-1.7-0.5-2.6-0.9-3.5-1.2C712.7,238.1,712.6,238.3,712.6,238.1z"/>
	<path d="M222.3,179.3c-1.6-0.2-3.3-0.4-5.9-0.7c0.5-1,1.1-2.2,1.7-3.5c1.3,1.1,2.8,2.2,4.2,3.8
		C222.3,179.3,222.3,179.3,222.3,179.3z"/>
	<path d="M725.8,246.5c0.7,1.3,1,2.7,0.9,4.2c-2.6-1.7-4.8-3.5-7-5.4c0.4-0.4,0.6-0.9,1-1.2C722.1,244.9,723.7,245.7,725.8,246.5z"
		/>
	<path d="M172.2,423.9c-0.6-4.8-0.6-4.8,4.9-3.9c-1.6,1.5-2.8,2.7-4.5,3.8C172.2,423.9,172.2,423.9,172.2,423.9z"/>
	<path d="M262.8,151.3c0.4,1.5,0.7,2.9,1.1,4.5c-1.2,0.2-2.6,0.5-6,1.1c1.8-2.7,2.9-4.3,4.4-5.7
		C262.7,151.2,262.8,151.3,262.8,151.3z"/>
	<path d="M298.2,141.4c-2,0-3.8,0-5.7,0c0-0.6,0.1-1.2,0.1-1.8c1.8,0.7,4.4-3.7,5.6,1.6C298.2,141.4,298.2,141.4,298.2,141.4z"/>
	<path d="M667.2,243.5c-2.6-1-2.6-1,1.5-4.4C668.3,240.5,667.8,241.9,667.2,243.5z"/>
	<path d="M145.8,404.6c-1.2-1.1-2.2-2.3-3.1-3.4c0.7-0.4,1.6-0.9,2.3-1.2C145.3,401.4,145.6,402.9,145.8,404.6z"/>
	<path d="M359.9,488.5c0.6,1.7,1,3.3,1.3,4.9c-0.5,0.1-1,0.2-1.3,0.4c-1-1.6-2-3.1-3.1-5C357.7,488.7,358.7,488.5,359.9,488.5z"/>
	<path d="M411.9,469.2c2.6-0.9,5-1.7,8.1-2.4c0.5,0,0.5,0,0.5,0.4c0,0.2,0,0.9,0,0.9v0.1c-2.2,2.9-5,1.2-8.1,1.2
		C411.9,469.2,411.9,469.2,411.9,469.2z"/>
	<path d="M554.4,474.6c1.1,0.6,1.7,1.5,2.4,2.2c-1.5,0.1-2.8,0.2-4.3,0.4C553.1,476.3,553.6,475.6,554.4,474.6z"/>
	<path d="M670,228.4c-1.6-1.3-3.4-3.1-5.1-4.8c0.6-0.4,1.1-0.7,1.7-1.1C667.7,224.3,668.8,226.3,670,228.4z"/>
	<path d="M688.4,403.1c0.6-1.8,1.2-3.8,1.8-6.1c4.5,3.1,1.6,4.5-1.5,6C688.4,403.1,688.4,403.1,688.4,403.1z"/>
	<path d="M323.5,97.3c-0.6,1.2-1.1,2.8-2.1,3.1c-1.1,0.2-2.4-0.6-3.8-1c0.6-0.7,1.2-1.6,1.8-2.3C320.7,97,322,97,323.5,97.3z"/>
	<path d="M168.5,196.4c-1.1-0.1-2.2-0.2-3.4-0.5c0.9-0.9,1.8-1.8,2.7-2.7c0.4,0.9,0.6,1.6,0.9,2.8
		C168.5,196.4,168.5,196.4,168.5,196.4z"/>
	<path d="M222.3,179.3c1.5,0.2,2.9,0.5,4.3,0.7c-0.1,0.7-0.4,1.5-0.5,2.2c-1.2-0.6-2.6-1.3-3.8-2.4
		C222.3,179.3,222.3,179.3,222.3,179.3z"/>
	<path d="M674.1,256.6c-1.5-2.7-1.5-2.7,2.7-3.7C675.8,254.4,675,255.4,674.1,256.6z"/>
	<path d="M252.3,459.4c1.5,0.1,2.6,0.4,3.5,0.5c-0.1,0.5-0.2,1-0.2,1.6c-1.7-0.5-3.4-1-5.1-1.3C250.9,459.9,251.4,459.7,252.3,459.4
		z"/>
	<path d="M426.6,466.8c0.1-1.5,0.4-2.8,0.5-4.3c0.6,0.1,1.3,0.4,2,0.5c-0.6,1.3-1.2,2.6-2.1,3.8
		C426.6,466.8,426.6,466.8,426.6,466.8z"/>
	<path d="M35.2,351.8c-1.3-0.1-2.4-0.7-3.8-1.7c1.2-1.1,2.6-1.8,4.6-2.9C35.8,349,35.5,350.2,35.2,351.8z"/>
	<path d="M251.7,446c0.1,1.8,0.2,3.5,0.1,5.7c-0.1,0.4-0.1,0.4-0.1,0.4c-3.8-1.7-1-3.5-0.1-5.7C251.7,446,251.7,446,251.7,446z"/>
	<path d="M339.8,461.9c0.6,0.9,1.3,1.7,2,2.7c-0.6,0.2-1.2,0.5-2,0.6c-0.2-1-0.6-2.1-0.5-3.2C339.8,461.9,339.8,461.9,339.8,461.9z"
		/>
	<path d="M420.5,466.8c0.1-0.9,0.4-1.8,0.5-2.7c0.6,0.1,1.2,0.4,1.8,0.5c-0.6,1.3-1.2,2.6-2.1,3.7c-0.2-0.2-0.2-0.2,0-0.4
		C421.1,467.2,421,467,420.5,466.8L420.5,466.8z"/>
	<path d="M480.8,476.7c-0.6-1-1-2-1.2-2.8c0.5-0.1,1-0.1,1.6-0.2C481.2,474.6,481.2,475.7,480.8,476.7z"/>
	<path d="M511,485.1c-0.9-1.1-1.7-2.2-2.6-3.3c0.5-0.2,1.1-0.6,1.6-0.9c0.4,1.1,0.6,2.2,1,3.7C511,485.1,511,485.1,511,485.1z"/>
	<path d="M141.5,377.7c0.2-0.2,0.9-0.2,1.1,0c-0.2,1.7-0.6,3.3-1.1,4.8c-0.4-0.1-0.9-0.2-1.2-0.4
		C140.6,380.8,140.9,379.3,141.5,377.7z"/>
	<path d="M41.2,354.3c-0.1,0.4-0.5,0.4-0.7,0.4c-0.9-1-1.6-2.1-2.3-3.2c0.5-0.4,1.1-0.7,1.6-1.1C40.3,351.7,40.8,352.8,41.2,354.3z"
		/>
	<path d="M79.3,349.5c-2,0.4-4,0.7-6,1.1c0-0.5-0.1-1-0.1-1.5c1.6,0,3.3,0,5.4,0.1C79.2,349.3,79.3,349.5,79.3,349.5z"/>
	<path d="M297.3,100.9c-1.7-1-3.1-2-4.4-2.9c0.1-0.4,0.4-0.6,0.5-1c1.6,0.6,3.3,1.3,5.1,2.3C298.4,100.2,298,100.5,297.3,100.9z"/>
	<path d="M101.5,229.7c-1,1.2-1.8,2.6-2.8,3.8c-0.5-0.4-1.1-0.7-1.6-1.2c1-1.2,1.8-2.6,3.4-3.5C101.2,229.3,101.4,229.5,101.5,229.7
		z"/>
	<path d="M372.4,117.9c-1.1-0.2-2-0.5-2.8-0.9c0.2-0.5,0.5-1,0.7-1.5C371.2,116.3,371.9,117,372.4,117.9z"/>
	<path d="M227.2,446c-0.4-1.2-0.7-2.6-1-3.8c0.5-0.1,1.1-0.1,1.6-0.2c0,1.1,0,2.3-0.2,3.7C227.2,446,227.2,446,227.2,446z"/>
	<path d="M93.9,369.8c-0.9-0.5-1.8-1.5-2.7-2.3c0.5-0.4,1-0.7,1.5-1.1C93,367.3,93.4,368.3,93.9,369.8z"/>
	<path d="M84.1,353c-0.6-1.3-1.3-2.7-2-4.2c0.6-0.1,1.1-0.4,1.7-0.5c0.1,1.2,0.2,2.4,0.2,4.2C84.1,353,84.1,353,84.1,353z"/>
	<path d="M479.8,479.2c0.2,0.9,0.2,1.6,0.1,2.4c-0.5-0.1-1-0.1-1.5-0.2C478.8,480.7,479.1,480,479.8,479.2z"/>
	<path d="M485.7,462.2c1.6-0.1,3.4,0.1,5.5,0.6C489.6,462.8,487.8,462.7,485.7,462.2z"/>
	<path d="M496.3,463.6c0-0.5,0.6-0.5,1.2-0.5s1.2,0,1.2,0c0,0.6,0,1.1-0.1,2.2c-0.4,1-0.2,1.2,0.1,1.5c0,0,0,0.6,0,0.9
		C497.9,466.6,497.2,465.3,496.3,463.6z"/>
	<path d="M669.5,253.2c-1.5-0.4-2.7-1.3-4.3-2.6C666.6,251.1,668.2,251.8,669.5,253.2z"/>
	<path d="M662.7,223.3c-1,0.5-2.1,1.1-3.1,1.6c-0.1-0.5-0.2-1-0.4-1.3c1.1-0.2,2.2-0.5,3.3-0.5C662.7,223.3,662.7,223.3,662.7,223.3
		z"/>
	<path d="M253.3,155.3c0.2-0.6,0.9-1.2,1.3-1.8c0.2,0.4,0.5,0.7,0.7,1C254.7,154.8,254.1,155.1,253.3,155.3z"/>
	<path d="M71.4,375.6c-0.5-0.4-0.7-1-1-1.5c0.9,0.1,1.7,0.1,2.4,0.2C72.6,374.9,72.1,375.3,71.4,375.6z"/>
	<path d="M513.7,486.6c1.1-0.1,2.6,0.1,3.9,0.4c-0.1,0.4-0.2,0.9-0.4,1.2C516.1,487.8,515,487.3,513.7,486.6z"/>
	<path d="M586.8,166.7c-0.7-0.4-1.5-1.1-2.1-1.8c0,0,0.5-0.5,0.7-0.7C586,164.7,586.4,165.5,586.8,166.7z"/>
	<path d="M66.9,338.1c-0.9,0-1.6-0.4-2.6-1.1C65.1,337,66,337.3,66.9,338.1z"/>
	<path d="M546.7,479c0.9,0.1,1.3,0.4,2,0.6c-0.2,0.4-0.6,0.9-0.9,1.2C547.3,480.3,546.8,479.7,546.7,479z"/>
	<path d="M301.7,98.6c0.9-0.6,1.3-5.6,3.7-0.4C304.4,98.6,303.4,98.6,301.7,98.6z"/>
	<path d="M99.8,370.6c0.2-0.6,0.7-1.1,1.3-1.3c0,0,0.5,0.5,0.7,0.7C101.1,370.4,100.5,370.6,99.8,370.6z"/>
	<path d="M175.8,433.7c-0.7,0.7-1.5,1.3-2.2,2.1c0,0-0.5-0.5-0.7-0.6c0.7-0.5,1.3-1,2.6-1.3C175.8,433.7,175.8,433.7,175.8,433.7z"
		/>
	<path d="M411.9,469.2c-0.2,0.9-0.4,1.7-0.6,2.6c-0.4-0.1-0.6-0.2-1-0.4c0.4-0.7,0.6-1.3,1.3-2.1
		C411.9,469.2,411.9,469.2,411.9,469.2z"/>
	<path d="M367.3,107.7c-0.6-0.2-0.9-0.6-1.2-1c0.5-0.1,1.1-0.4,1.6-0.5C367.6,106.6,367.6,107.1,367.3,107.7z"/>
	<path d="M473.7,483.8c-0.6,0.2-1.3,0.2-2,0.1c0.1-0.4,0.2-0.6,0.4-1C472.6,483.1,473.1,483.3,473.7,483.8z"/>
	<path d="M106.4,380c-0.5-0.6-0.6-1.1-0.9-1.6c0.4-0.1,0.7-0.2,1-0.4C106.5,378.8,106.6,379.4,106.4,380z"/>
	<path d="M712.2,238.4c1.3,0,2.3,0.4,3.5,0.7C714.7,239.1,713.2,239,712.2,238.4z"/>
	<path d="M46.7,345.3c-0.1,0.5-0.5,0.7-0.7,1.1c-0.1-0.1-0.4-0.4-0.4-0.4C45.9,345.7,46.2,345.4,46.7,345.3z"/>
	<path d="M367.4,488.5c-0.5,0.6-1.2,1.1-1.8,1.5c-0.1-0.4-0.2-0.6-0.4-1C365.8,488.8,366.5,488.5,367.4,488.5z"/>
	<path d="M105.4,371c-0.1,0.4-0.5,0.6-0.9,0.9C104.8,371.5,105,371.1,105.4,371z"/>
	<path d="M369.1,497.9c-0.1-0.4-0.1-0.9,0-1.2C369.2,497.1,369.2,497.6,369.1,497.9z"/>
	<path d="M66.6,355.4c0.4,0.6,0.5,1.1,0.6,1.7c-0.4-0.1-0.9-0.1-1-0.2C66.2,356.4,66.2,355.9,66.6,355.4z"/>
	<path d="M471.9,479c-0.4,0.6-0.7,1.1-1.1,1.7c-0.2-0.2-0.5-0.4-0.7-0.6c0.4-0.4,0.7-0.7,1.5-1.1C471.9,479,471.9,479,471.9,479z"/>
	<path d="M496.9,493.7c0.4-0.1,0.9-0.1,1.2,0C497.7,493.7,497.3,493.8,496.9,493.7z"/>
	<path d="M83.2,378.4c-0.1-0.9-0.1-1.5-0.1-2.2c0.2,0,0.6,0.1,0.9,0.1C83.9,377.1,83.6,377.8,83.2,378.4z"/>
	<path d="M93,362c-0.4-0.1-0.6-0.5-0.9-0.9C92.5,361.4,92.9,361.7,93,362z"/>
	<path d="M135.7,381.5c0.9-0.2,1.6-0.2,2.2-0.2c0,0.4-0.1,0.6-0.1,1C137.1,382.1,136.3,381.9,135.7,381.5z"/>
	<path d="M252.8,465.4c0.4-0.5,0.9-1.1,1.2-1.6c0.2,0.2,0.5,0.4,0.7,0.6c-0.4,0.4-0.6,0.7-1.3,1.2
		C252.9,465.5,252.8,465.4,252.8,465.4z"/>
	<path d="M643.6,381.1c-0.1-0.9,0.4-1.7,1.5-2.6C645.1,379.4,644.7,380.3,643.6,381.1z"/>
	<path d="M45,324.3c0.1,0.4,0.1,0.9,0,1.2C45,325,44.8,324.6,45,324.3z"/>
	<path d="M580.2,165c0.1-0.5,0.5-0.9,0.9-1.1c0,0,0.2,0.2,0.4,0.4C581.1,164.5,580.8,164.9,580.2,165z"/>
	<path d="M464.5,457.9c-1,1-1.8,1.8-3.2,2.6c-0.1-0.6,0.2-1.2,1.5-2.7C464,457.1,464.4,457.2,464.5,457.9z"/>
	<path d="M244.3,458.2c0.6,0.4,1.2,0.7,1.8,1.2c-0.2,0.2-0.4,0.5-0.6,0.7c-0.4-0.4-0.7-0.7-1.2-1.5
		C244.2,458.3,244.3,458.2,244.3,458.2z"/>
	<path d="M759.1,264.1c1,0.7,1.6,1.8,2.1,2.9c-1-0.2-2.1-0.5-3.3-1.3C758,265,758.2,264.8,759.1,264.1z"/>
	<path d="M336.9,459.2c-0.6,0.1-1.1-0.1-1.7-0.4c0.1-0.4,0.2-0.6,0.4-1C336.1,458.2,336.6,458.6,336.9,459.2z"/>
	<path d="M214.7,448.2c0.5-0.5,0.9-1.1,1.3-1.6c0.2,0.2,0.7,0.6,0.6,0.6c-0.4,0.4-0.7,0.7-1.5,1.1
		C215,448.4,214.7,448.2,214.7,448.2z"/>
	<path d="M298.2,141.4c0.6,0.4,1.2,0.9,1.8,1.2c-0.2,0.2-0.5,0.5-0.7,0.7c-0.4-0.4-0.6-0.9-1-1.6
		C298.2,141.4,298.2,141.4,298.2,141.4z"/>
	<path d="M262.2,144.2c0.1-0.5,0.5-0.9,0.7-1.1c0,0,0.2,0.2,0.4,0.4C262.9,143.8,262.7,144.2,262.2,144.2z"/>
	<path d="M177.6,200.5c0.5-0.4,0.9-0.5,1.1-0.6c0,0.5-0.1,1-0.1,1.6C178.2,201.2,177.8,201,177.6,200.5z"/>
	<path d="M71.1,381.1c-0.4,0-0.7-0.2-0.7-0.5c0.6-0.5,1.2-0.9,1.7-1.1C72,380,71.7,380.5,71.1,381.1z"/>
	<path d="M419.9,471.6c0.4-0.1,0.9-0.1,1.2,0C420.6,471.6,420.2,471.8,419.9,471.6z"/>
	<path d="M168.5,196.4c0.5,0.9,1.1,1.8,1.6,2.7c-0.2,0.1-0.6,0.2-0.9,0.4c-0.2-0.7-0.5-1.6-0.7-2.7
		C168.5,196.4,168.5,196.4,168.5,196.4z"/>
	<path d="M429.2,470.1c0.2-0.5,0.7-0.9,1.2-1.1c0,0,0.4,0.5,0.5,0.7C430.4,469.8,429.8,470.1,429.2,470.1z"/>
	<path d="M175.2,195c-0.6,0.2-1.3,0.1-2,0.1c0-0.2,0.1-0.6,0.1-0.9C174,194.3,174.6,194.5,175.2,195z"/>
	<path d="M253,465.7c-0.4,0.6-0.7,1.1-1.1,1.7c-0.2-0.2-0.5-0.4-0.7-0.6c0.4-0.4,0.7-0.7,1.3-1.2C252.8,465.4,252.9,465.5,253,465.7
		z"/>
	<path d="M71.6,332.1C71.6,332.1,71.7,332,71.6,332.1c-0.7-0.2-1.6-0.5-2.4-0.7c0.4-0.6,0.7-1.1,1.5-1.8c0.4-0.1,0.4-0.1,0.4,0.6
		C71.3,331.1,71.5,331.6,71.6,332.1z"/>
	<path d="M306,105.2c-0.5-0.1-0.9-0.5-1.2-0.9c0.1-0.1,0.4-0.4,0.4-0.4C305.5,104.3,305.9,104.7,306,105.2z"/>
	<path d="M173.4,428.8c0.6-0.5,1.3-1,2-1.3c0.1,0.4,0.4,1,0.4,1c-0.5,0.2-1.1,0.5-2,0.6C173.4,428.8,173.4,428.8,173.4,428.8z"/>
	<path d="M88,346c0.2-0.1,0.5-0.1,0.7-0.1c-0.1,0.4-0.1,0.6-0.2,1C88.3,346.8,88.1,346.5,88,346z"/>
	<path d="M347.1,487.6c-0.7,0-1.5-0.1-2.2-0.1c0-0.2,0-0.4,0-0.6c0.6,0,1.2,0.1,2,0.5C347.1,487.6,347.1,487.6,347.1,487.6z"/>
	<path d="M38.8,343.6c0.5,0,0.9,0.2,1.1,0.4C39.6,343.9,39.2,343.8,38.8,343.6z"/>
	<path d="M677.4,259.5c0.4-0.2,0.7-0.2,1.2-0.2C678.2,259.4,677.8,259.5,677.4,259.5z"/>
	<path d="M670.6,241.8c0.1-0.4,0.4-0.6,0.6-1C671,241.3,670.9,241.7,670.6,241.8z"/>
	<path d="M34.1,338.9c-0.4-0.2-0.6-0.5-0.7-0.9C33.7,338.3,34,338.6,34.1,338.9z"/>
	<path d="M687.1,241.7c0.2,0.5,0.5,1,0.7,1.5c-0.5,0.1-1,0.1-1.7,0c-0.2-0.2-0.2-0.2,0.1-0.4C686.8,242.3,687,242.1,687.1,241.7
		L687.1,241.7z"/>
	<path d="M162,190.3c0,0.5-0.2,0.9-0.4,1.2C161.7,191,161.8,190.6,162,190.3z"/>
	<path d="M240.7,464.3c-0.5-0.2-1-0.4-1.5-0.6c0,0,0.2-0.6,0.4-0.9c0.4,0.2,0.7,0.6,1.1,1.2C240.7,464.3,240.7,464.3,240.7,464.3z"
		/>
	<path d="M424.8,470.9c0-0.4,0.2-0.6,0.5-0.9c0.1,0.1,0.2,0.2,0.4,0.4C425.4,470.8,425.1,470.9,424.8,470.9z"/>
	<path d="M471.9,469.6c0-0.4,0.6-0.4,0.9-0.4c0,0.7-0.2,1.5-0.5,2.2C472.2,470.9,472,470.4,471.9,469.6z"/>
	<path d="M251.7,452.1c0.6,0.4,1.3,0.7,2,1c-0.1,0.1-0.2,0.4-0.2,0.5c-0.5-0.4-1-0.6-1.6-1.2C251.7,452.1,251.7,452.1,251.7,452.1z"
		/>
	<path d="M484.6,470.4c0.2,0.4,0.2,0.7,0.2,1.2C484.7,471.3,484.6,470.9,484.6,470.4z"/>
	<path d="M352.5,483.6c0.4-0.1,0.7-0.1,1.1,0C353.2,483.8,352.8,483.8,352.5,483.6z"/>
	<path d="M511,485.1c0.6,0.2,1.3,0.5,2.2,1c-0.6,0.1-1.3-0.1-2.2-0.6C511,485.1,511,485.1,511,485.1z"/>
	<path d="M403.1,464.7c1-0.2,1.6-0.1,2.3,0c-0.4,0.6-0.9,1.2-1.6,1.8C403.2,466,403.1,465.5,403.1,464.7z"/>
	<path d="M79.1,349.2c0.4-0.5,0.7-1,1.2-1.5c-0.1,0.5-0.2,1-0.7,1.6C79.3,349.5,79.2,349.3,79.1,349.2z"/>
	<path d="M217.4,185.4c0.1,0.6,0.2,1.1,0.5,1.7c-0.4,0.1-0.6,0.1-1,0.2c0-0.5,0-1,0.4-1.7C217.4,185.4,217.4,185.4,217.4,185.4z"/>
	<path d="M168.5,432.5c0-0.7,0.1-1.5,0.1-2.2c0.2,0,0.4,0,0.6,0c0,0.6-0.1,1.2-0.5,2C168.5,432.5,168.5,432.5,168.5,432.5z"/>
	<path d="M178,427.2c0.1,0.4,0.1,0.7,0,1.1C178,428,177.9,427.6,178,427.2z"/>
	<path d="M348.1,490.2c-0.2-0.6-0.6-1.3-1-2.3c0-0.4,0-0.4,0-0.4c0.5,0.6,1,1.1,1.3,2.1C348.3,490,348.1,490.2,348.1,490.2z"/>
	<path d="M362.6,498.7c0,0.5-0.2,0.9-0.4,1.1C362.3,499.3,362.4,498.9,362.6,498.7z"/>
	<path d="M662.7,223.3c0.4,0.7,0.9,1.5,1.2,2.2c-0.2,0.1-0.6,0.2-0.9,0.2c-0.1-0.6-0.1-1.2-0.2-2.2
		C662.7,223.3,662.7,223.3,662.7,223.3z"/>
	<path d="M96.1,360.7c-0.1,0.5-0.4,0.6-0.5,0.9c-0.1-0.4-0.1-0.6-0.2-1C95.6,360.6,95.8,360.6,96.1,360.7z"/>
	<path d="M217.4,184.2c0.5,0.2,1,0.4,1.3,0.6c-0.2,0.1-0.6,0.4-1.1,0.6c-0.2,0-0.2,0-0.2,0c0-0.2,0-0.4,0-1
		C217.4,184.2,217.4,184.2,217.4,184.2z"/>
	<path d="M649.1,174.9c-0.6-0.4-0.7-0.9-0.9-1.5c0.6,0.1,1.3,0.1,2.1,0.5C650.2,174.4,650,174.7,649.1,174.9z"/>
	<path d="M678.9,255.1c0.1-0.2,0.2-0.2,0.5-0.2C679.2,255,679.1,255.1,678.9,255.1z"/>
	<path d="M255,148.7c-0.1,0.1-0.2,0.2-0.4,0.2C254.7,148.8,254.9,148.7,255,148.7z"/>
	<path d="M579.5,141.4c-0.2,0.4-0.4,0.7-0.6,1.2c0.1-0.2,0.1-0.6,0.4-1C579.5,141.4,579.5,141.4,579.5,141.4z"/>
	<path d="M373,107.9c-0.2,0-0.4,0-0.5-0.1C372.7,107.7,372.9,107.7,373,107.9z"/>
	<path d="M174.9,205.7c-0.2,0-0.5-0.1-0.6-0.4C174.5,205.5,174.7,205.6,174.9,205.7z"/>
	<path d="M664.6,218.4c-0.1,0.1-0.2,0.2-0.4,0.2C664.4,218.6,664.5,218.4,664.6,218.4z"/>
	<path d="M692.2,406.9c0.6-0.6,1.5-1.1,2.6-1.1c0.4,0.4,0.5,0.4,0.5,0.4c-0.6,0.4-1.2,0.7-2.1,1.3
		C692.6,407.6,692.3,407.2,692.2,406.9z"/>
	<path d="M666.8,246.3C667,246.3,666.8,246.3,666.8,246.3z"/>
	<path d="M224.8,187c0.1,0.2,0.1,0.4,0,0.6C224.7,187.4,224.7,187.1,224.8,187z"/>
	<path d="M360.2,496.1c-0.1,0.1-0.2,0.2-0.4,0.2C359.9,496.2,360.1,496.1,360.2,496.1z"/>
	<path d="M134.3,378.7c-0.6-0.2-1.3-0.5-2.2-1c-0.2-0.2-0.2-0.2-0.2-0.2c0.6,0.2,1.3,0.5,2.2,1C134.3,378.7,134.3,378.7,134.3,378.7
		z"/>
	<path d="M521,478.5c-0.2,0-0.4,0-0.5-0.1C520.7,478.4,520.9,478.4,521,478.5z"/>
	<path d="M475.9,482.7c0.1-0.1,0.2-0.2,0.4-0.2C476.1,482.5,476,482.7,475.9,482.7z"/>
	<path d="M468.7,484.1L468.7,484.1z"/>
	<path d="M348.3,490c0.2,0.5,0.4,1,0.5,1.6c-0.2-0.2-0.4-0.5-0.7-1.1C348.1,490.2,348.3,490,348.3,490z"/>
	<path d="M477.5,472.6L477.5,472.6z"/>
	<path d="M93.9,370.5c0.4,0.2,0.7,0.9,1.1,1.7c0,0.4,0,0.4,0,0.4C94.7,372,94.4,371.5,93.9,370.5z"/>
	<path d="M49.5,344.4c-0.1,0.1-0.2,0.1-0.4,0.2C49.2,344.6,49.4,344.4,49.5,344.4z"/>
	<path d="M35.4,341.3c0,0.2-0.2,0.2-0.4,0.4C35.2,341.5,35.3,341.4,35.4,341.3z"/>
	<path d="M172.2,423.9c-0.2,0.4-0.5,0.9-0.6,1.2c0.1-0.4,0.1-0.6,0.5-1.1C172.2,423.9,172.2,423.9,172.2,423.9z"/>
	<path d="M175.8,433.7c0.2-0.4,0.5-0.9,0.7-1.2c-0.1,0.4-0.1,0.6-0.5,1.1C175.8,433.7,175.8,433.7,175.8,433.7z"/>
	<path d="M218.3,439.1c0.2-0.1,0.5,0,0.6,0.1C218.7,439.2,218.4,439.2,218.3,439.1z"/>
	<path d="M255,446.7c0.1-0.2,0.4-0.2,0.6-0.2C255.5,446.6,255.4,446.7,255,446.7z"/>
	<path d="M237.5,448.7L237.5,448.7z"/>
	<path d="M215,448.4c-0.5,0.2-1,0.4-1.6,0.5c0.2-0.2,0.5-0.4,1.1-0.7C214.7,448.2,215,448.4,215,448.4z"/>
	<path d="M221.2,449.5c0.5,0.1,1,0.4,1.3,0.7c-0.5,0-0.9,0-1.5-0.1C221,449.8,221.1,449.6,221.2,449.5z"/>
	<path d="M135.5,385.2C135.5,385.2,135.4,385.2,135.5,385.2z"/>
	<path d="M77.5,382.1L77.5,382.1z"/>
	<path d="M493,463.1c-0.1-0.5,0.1-1,0.2-1.3c0.2,0.2,0.4,0.6,0.6,1.1C493.6,463.1,493.5,463.1,493,463.1z"/>
	<path d="M486.8,466c0,0.2-0.2,0.2-0.4,0.4C486.5,466.3,486.7,466,486.8,466z"/>
	<path d="M426.6,466.8c-0.2,0.2-0.5,0.5-0.9,0.7c-0.1,0-0.2-0.1-0.5-0.1c0.2-0.1,0.5-0.4,1-0.6C426.6,466.8,426.6,466.8,426.6,466.8
		z"/>
	<path d="M244.8,470.2C245,470.2,244.8,470.2,244.8,470.2z"/>
	<path d="M262.1,146.9C262.1,146.8,262,146.9,262.1,146.9z"/>
	<path d="M290.1,139.5C290.2,139.4,290.1,139.5,290.1,139.5z"/>
	<path d="M259.6,146.9C259.6,147,259.8,146.9,259.6,146.9z"/>
	<path d="M89,392.1c-0.1,0.5-0.4,1-0.7,1.6c-0.2,0.1-0.2,0,0-0.4C88.6,392.8,88.9,392.4,89,392.1L89,392.1z"/>
	<path d="M289,142C289,141.9,288.9,142,289,142z"/>
	<path d="M339.8,461.9l0.4-0.5c0,0,0,0.4-0.1,0.5C339.9,462,339.8,461.9,339.8,461.9z"/>
	<path d="M134.3,378.7l0.5,0.4c0,0-0.4,0-0.5-0.1C134.3,378.7,134.3,378.7,134.3,378.7z"/>
	<path d="M111.1,380c-0.1,0-0.4,0-0.2,0C111,379.9,111.1,380,111.1,380z"/>
	<path d="M587.5,173.8C587.6,173.8,587.5,173.7,587.5,173.8z"/>
	<path d="M89,388.5l0.4-0.5c0,0,0,0.4-0.1,0.5C89.1,388.5,89,388.5,89,388.5z"/>
	<path d="M240.1,460L240.1,460z"/>
	<path d="M264.2,150.9c0.1,0.2,0.2,0.5,0.2,0.7c-0.1,0-0.2,0-0.5-0.2C263.9,151.2,264.2,150.9,264.2,150.9z"/>
	<path d="M338.7,456.1c0.2-0.1,0.6,0.1,0.9,0.5C339.1,456.8,338.9,456.6,338.7,456.1z"/>
	<path d="M108,386.6C108,386.6,107.8,386.6,108,386.6z"/>
	<path d="M262.7,151.2c0.4-0.2,0.7-0.4,1.3-0.4c0.1,0.1,0,0.4-0.1,0.5s-0.6,0-0.9,0S262.7,151.2,262.7,151.2z"/>
	<path d="M302.9,102.1c0.1,0,0.2,0,0.2,0C303.1,102.2,302.9,102.1,302.9,102.1z"/>
	<path d="M169.1,427C169.1,427.1,169.2,427,169.1,427z"/>
	<path d="M303.1,102.2c-0.1,0-0.2,0-0.2,0C302.9,102.1,303.1,102.2,303.1,102.2z"/>
	<path d="M170.3,417.2L170.3,417.2z"/>
	<path d="M695,406.2C695,406.1,694.9,406.1,695,406.2C695.1,406.2,695,406.1,695,406.2z"/>
	<path d="M373.4,113.9C373.4,113.9,373.4,114,373.4,113.9z"/>
	<path d="M368.5,113.9C368.5,113.7,368.4,113.9,368.5,113.9z"/>
	<path d="M370.9,112.6L370.9,112.6z"/>
	<path d="M168.5,432.5l-0.2,0.5c0,0,0-0.4,0.1-0.4C168.5,432.6,168.5,432.5,168.5,432.5z"/>
	<path d="M173.4,428.8l-0.2,0.5C173.2,429.3,173.2,429,173.4,428.8L173.4,428.8z"/>
	<path d="M41.9,347.5L41.9,347.5z"/>
	<path d="M94.5,348.7L94.5,348.7z"/>
	<path d="M89.6,349.9L89.6,349.9z"/>
	<path d="M636.4,221.5C636.4,221.4,636.3,221.5,636.4,221.5z"/>
	<path d="M101,228.7c-0.1-0.4,0.1-0.9,0.2-0.9c0.4,0,0.6,0.1,1.2,0.5c0.1,0.5-0.1,0.9-0.6,1.3C101.4,229.5,101.2,229.3,101,228.7z"
		/>
	<path d="M670.8,237.4C670.8,237.4,670.6,237.3,670.8,237.4z"/>
	<path d="M49.2,341.4C49.1,341.4,49.2,341.5,49.2,341.4z"/>
	<path d="M718.3,242.4c-0.1,0.1-0.2-0.2-0.2-0.2S718.6,242.3,718.3,242.4z"/>
	<path d="M43.1,345L43.1,345z"/>
	<path d="M85.9,345C85.9,345,85.8,345,85.9,345z"/>
	<path d="M128,378.8c0.1-0.1-0.1,0.4-0.1,0.4S127.9,378.8,128,378.8z"/>
	<path d="M176.5,198.1C176.5,198.1,176.3,198.3,176.5,198.1z"/>
	<path d="M111,379.8l0.4-0.5c0,0,0,0.5-0.1,0.5S111,379.9,111,379.8z"/>
	<path d="M58.4,322.5c-0.1,0.4-0.6,0.5-1,0.7c0-0.2-0.1-0.6,0-1.1C57.9,321.9,58.1,322.1,58.4,322.5z"/>
	<path d="M403.4,468l-0.2,0.5C403.1,468.5,403.1,468.1,403.4,468L403.4,468z"/>
	<path d="M248.6,468.6L248.6,468.6z"/>
	<path d="M246.2,467.4L246.2,467.4z"/>
	<path d="M481.6,464.3l0.5,0.2c0,0-0.4,0-0.4-0.1S481.6,464.3,481.6,464.3z"/>
	<path d="M240.7,464.3l0.5,0.4c0,0-0.4,0-0.5-0.1C240.7,464.3,240.7,464.3,240.7,464.3z"/>
	<path d="M418.7,463.7C418.8,463.7,418.7,463.6,418.7,463.7z"/>
	<path d="M334.2,463.7C334.1,463.7,334.2,463.8,334.2,463.7z"/>
	<path d="M346.4,483.3C346.4,483.3,346.5,483.4,346.4,483.3z"/>
	<path d="M77.4,372C77.4,372,77.3,372,77.4,372z"/>
	<path d="M367.3,491.8C367.4,491.8,367.3,491.7,367.3,491.8z"/>
	<path d="M505.5,490.6L505.5,490.6z"/>
	<path d="M522.6,486.9L522.6,486.9z"/>
	<path d="M217.4,184.2l-0.5-0.2c0,0,0.4,0,0.4,0.1C217.4,184.2,217.4,184.2,217.4,184.2z"/>
	<path d="M81,374.4L81,374.4z"/>
	<path d="M471.9,479l0.2-0.5c0,0,0,0.4-0.1,0.4C471.9,479,471.9,479,471.9,479z"/>
	<path d="M167.9,204.4C168,204.4,167.9,204.3,167.9,204.4z"/>
	<path d="M460.4,83.6c1,0.6,1.7,1.3,2.4,2.1c-1,0.5-2,1-3.1,1.5C459.9,86.1,459.9,84.9,460.4,83.6z"/>
	<path d="M488.3,97.8c-0.6,1-1.3,1.6-2.1,2.2c-0.2-0.7-0.4-1.3-0.6-2.1C486.4,97.8,487.3,97.6,488.3,97.8z"/>
	<path d="M568.9,128.4c-0.4-0.1-0.6-0.5-0.9-0.9C568.4,127.8,568.7,128.1,568.9,128.4z"/>
	<path d="M519.2,104.1c0.1,0.1,0.4,0.4,0.5,0.7c-0.1-0.1-0.2-0.1-0.5-0.4C519,104.3,519.1,104.2,519.2,104.1z"/>
	<path d="M89.6,398.9c-0.2,0.6-0.6,0.9-1.1,1.2c-0.1-0.5-0.4-1.1-0.5-1.6C88.5,398.5,89,398.5,89.6,398.9z"/>
	<path d="M88.5,392.1c0.4,0.2,0.1,0.6-0.2,1.2c-0.9,0.1-1.3-0.2-2-0.9C86.8,392.3,87.4,392.3,88.5,392.1z"/>
	<path d="M85.9,397.6L85.9,397.6z"/>
	<path d="M606.3,461.7c6.7,1.5,4.2-5.1,5.9-8.3c3.9,6.4,0.2,9.7-4.4,13.7c-0.6-2-1-3.3-1.5-5C606.2,461.6,606.4,461.7,606.3,461.7z"
		/>
	<path d="M597.1,451.8c0.6-0.9,1.3-1.2,2.1-1.7c0.2,0.7,0.4,1.5,0.6,2.1C598.8,452.2,598,452.2,597.1,451.8z"/>
	<path d="M603,453.7c0.7,0.2,1.1,0.6,1.3,1c-0.5,0.2-0.9,0.5-1.3,0.7C603,454.9,602.9,454.3,603,453.7z"/>
	<path d="M608.2,453.3c0.4-0.1,0.7-0.1,1.2,0C609,453.3,608.6,453.4,608.2,453.3z"/>
	<path d="M600.3,468.6c-0.1-0.4-0.1-0.9,0-1.2C600.3,467.9,600.4,468.2,600.3,468.6z"/>
	<path d="M592.2,472.6C592.3,472.6,592.2,472.6,592.2,472.6z"/>
	<path d="M515.9,499.4c0.5-0.2,0.6-0.2,1,0.1c0.6,1.2,0.9,2.1,1.3,3.4c-0.6,0.6-1.2,0.9-2.1,1.3c-1.6,0.1-2.9,0-5.9-0.4
		C512.7,502.1,514.2,501,515.9,499.4z"/>
	<path d="M598.5,151.8C598.5,151.8,598.6,151.8,598.5,151.8z"/>
	<path d="M519,495c-0.5-0.2-1-0.6-1.5-0.9c0.4,0.1,0.7,0.2,1.3,0.6C519,495,519,495,519,495z"/>
	<path d="M519,491.8L519,491.8z"/>
	<path d="M289.6,100.7L289.6,100.7z"/>
	<path d="M286.2,101.1c-0.1-0.5,0-1.3,0.6-2.3C286.9,99.4,286.7,100.2,286.2,101.1z"/>
	<path d="M285.1,103.3c-0.1-0.2,0.1-0.6,0.6-1.2C285.8,102.4,285.6,102.9,285.1,103.3z"/>
	<path d="M290.8,110.7c-0.2,0.1-0.2-0.4-0.2-0.7C290.7,109.9,290.8,110.3,290.8,110.7z"/>
	<path d="M719.4,239.5c-1-1.3-1.5-2.3-1.8-3.8c1.2,0.6,2.4,1.7,3.8,3.2C720.9,239.4,720.4,239.6,719.4,239.5z"/>
	<path d="M53.4,382.2c-0.1,0.2-0.4,0.2-0.9,0.1C52.7,382.1,53,382.1,53.4,382.2z"/>
	<path d="M618.6,454.5c0.1-0.5,0.4-1,0.6-1.5c0,0,0.6,0.2,0.9,0.4c-0.2,0.4-0.6,0.7-1.2,1.1C618.6,454.5,618.6,454.5,618.6,454.5z"
		/>
	<path d="M288,111.3c0.1,0.1-0.2,0.1-0.2,0.1S287.9,111.2,288,111.3z"/>
	<path d="M533.1,348.1c-0.4,0.5-0.7,1-1.7,1.8c-2.9,3.2-7.8,7.2-7.2,8.2c3.1,5.4-2.2,7.2-3.4,10.5c0,0,0.1,0.1-0.2,0.1
		c-1.1,0.6-1.8,1.1-2.6,1.6c0,0-0.2,0.1-0.6,0.4c-0.7,1.6-1.1,2.8-1.5,4c-0.4,0-0.7,0.1-1.5,0.9c-1.5,2.1-2.6,3.7-3.7,5.3
		c-5.3,7.2-10.5,14.6-15.9,21.7c-0.9,1.1-2.4,1.7-3.7,2.6c-0.1-0.1-0.2-0.2-0.2-0.4c0.1-0.4,0.4-0.7,1-1.6c0.1-0.7-0.1-1-0.4-1.1
		c0.2,0.4,0.4,0.7,0.6,1.1c-1.2-1.1-2.4-2.1-4.8-4.2c-0.2,0.2-1.8,1.5-3.1,2.8c-1.7,2.1-15.3,6.8-18,6.2c-0.6-0.1-1.5,0.6-2.3,1
		c-7.5,3.7-14.6,8.2-22.4,10.9c-13.9,4.8-28.4,6.7-43.3,7c-17,0.2-33.6-2.2-49.9-6c-12.4-2.8-23.7-8.8-33.1-18.3
		c-5.4-5.4-12.7-8.8-19.1-13.1c-1.1-0.7-2.1-1.8-3.1-2.8c-2.1-2.2-4.8-6.7-6-6.4c-4,1.2-4.2-1.7-5.6-3.4c-2.2-2.6-4.9-4.9-6.6-7.7
		c-1.8-3.1-2.6-6.8-4.2-10.2c-2.4-5.1-5.3-10-8-15.7c0-0.5,0-0.7,0-0.7l-0.4,0.4c-0.2-0.1-0.4-0.1-0.4-1c-0.4-9.2-1-17.5-1.5-25.8
		c-0.6,0-1.2,0-1.8,0c-0.6,1-1.3,2-2,2.8c-1.1-3.4-0.6-6.6-0.9-9.7c-0.2-4.3-1.1-8.6-1.7-12.8c0.1-5.3,0.1-10.5,0.4-15.8
		c0-0.6,1.5-1,2-1.7c0.6-1,0.9-2.1,1.2-3.8c0-0.6,0.4-1,0.4-1c0.7-0.9,2.1-2.2,2-2.6c-2.9-5.7,1.2-10.8,1.6-16.1
		c0-0.9,1.2-1.7,1.7-2.7c1.1-2.1,2.3-4,3.1-6.2c1-3.2,1.3-6.6,2.4-9.9c0.6-1.8,2.3-3.3,3.2-5.1c7.5-14.8,19.2-25.3,33-34.2
		c0.7,1,1.5,1.8,1.5,1.7c7.3-3.7,14.7-6.6,21-11.1c1.7-1.2,3.3-2.7,5.4-3.8c4.6-2.4,8.7-5.9,13.1-8.9c4.5,5.6,10.8-1.5,16.8,1
		c-5.5,4.9-14.3,4.9-17,12.5c17.4-2.3,34.1-4.6,50.9-6.8c-0.2-0.4-0.4-0.9-1-2.1c2.1,1.1,3.4,1.7,4.8,2.4c0.2-0.2,0.5-0.5,0.9-0.7
		c-0.9-1.1-1.7-2.2-3.7-4.6c3.9-1,7.2-2.2,10.5-2.4c7.8-0.5,15.7-0.7,23.4-0.7c3.5,0,7.2,0.9,11,1.3c-0.6,1.6-1,2.6-1,2.4
		c3.2,0.9,6.2,1.3,8.9,2.6c8,3.5,16,7.1,23.6,11.4c6.5,3.7,12,9.3,18.7,12.1c6.8,2.8,8.8,8.8,12,13.8c5,8.1,8.6,17,12.8,25.6
		c1.1,2.2,2.3,4.3,3.4,6.5c0.1,0.2,0.6,0.2,1,0.2c0-0.2-0.1-0.4-0.1-0.6c-0.2,0.4-0.9,0.9-0.9,1c1.8,3.3,3.8,6.6,5.7,10.8
		c0.1,1.8,0.1,2.7-0.4,3.7c-1,0-1.5-0.1-2.1-0.2c-0.2-0.1-0.4-0.1-0.5-0.2c0.1,0.2,0.1,0.5,0.2,1.1c-1.6,2.8-3.3,5.3-5,7.8
		c1.7,1.7,3.4,3.3,5.3,5.1c0.4,0.6,0.6,0.9,1,1.5c0.1,0.7,0.1,1,0.2,1.5c0,0.1,0,0.5-0.2,0.6c-0.6,0.4-0.9,0.7-1.1,1.3
		c2,3.8,4,7.3,5.9,10.8c-0.5,0.2-0.7,0.4-1,0.6c0.1,0,0.4,0.2,0.5,0.1c0.4-0.2,0.6-0.5,1.5-0.7c1.7-0.1,2.8-0.1,4.2,0
		c0.1,1,0.1,1.7-0.2,2.4c-0.4,1-0.2,1.8-0.2,2.9c0,0.2-0.1,0.7-0.5,0.7c-0.6,0.2-0.7,0.5-1,0.7c0.4,0.2,0.9,0.4,1.2,1
		c-0.2,0.5-0.4,0.6-1.1,0.9c-1.3,0.9-2.3,1.6-3.2,2.4c1.2,1,2.3,1.8,3.3,3.2c-0.4,2.4-5.6,3.7-1.5,6.8c1.1,1.5,3.7,2.6,3.5,3.3
		c-0.6,4.5-1.8,9.1-3.1,13.5c-0.6,2.2-1.5,4.2-2.2,6.4c0.6,0.2,1.1,0.4,1.7,0.6c0.7-1.8,1.6-3.7,2.3-5.5c0.2,0.1,0.5,0.2,0.7,0.4
		C534.5,338.7,533.9,343.5,533.1,348.1 M367.5,217.3c0,0.1-0.1,0.2-0.1,0.4c0.2-0.1,0.5-0.2,1-0.6c0-0.1,0.1-0.2,0.1-0.4
		C368.3,216.9,368,217,367.5,217.3 M376,221.3c0,0.5,0.1,0.9,0.1,1.3c0.1-0.6,0.2-1.1,0.7-1.8c0-0.1,0.1-0.2,0.1-0.2
		C376.8,220.6,376.6,220.8,376,221.3 M278.3,292.6c-0.4-0.1-0.6-0.1-1-0.2c0.4,0.2,0.9,0.5,1.2,1.3c0.4,1.2,0.6,2.4,1,3.7
		c0.4-0.1,0.9-0.2,1.2-0.2c-0.2-1.3-0.6-2.7-0.2-4.2c0.1-0.7,0.2-1.5,0.4-2.2c-0.4,0-0.7-0.1-1-0.1c-0.1,0.7-0.2,1.5-0.9,2.3
		C279.1,292.9,278.6,293.1,278.3,292.6 M349.9,399.6c0,1.3,0,2.7,0,4.2c0.5-0.1,1-0.1,1.5-0.2c-0.2-1.3-0.4-2.6-0.4-4v-0.4
		C351.1,399,350.6,399.4,349.9,399.6 M337.3,400.7c0,0,0,0,0.1-0.7c0.7-1.7,1.6-3.5,2.6-5.4v-0.5c0,0-0.4,0.4-1,1
		c-1.8,1.5-3.5,2.9-5.7,3.7c-10.2-6.2-20.3-12.5-30.6-18.7c0.1,2.2,0.9,4,2.2,5.1c4.9,4.2,11.4,6.5,14.4,12.8
		c0.6,1.3,2.9,1.8,4.6,2.7c2.4,1.2,4.8,2.6,7.3,3.3c3.8,1.1,7.7,1.8,11.5,2.7c0.2-0.7,0.4-1.6,0.6-2.3c-1.7-0.9-3.3-1.8-5.4-3.2
		C337.9,401.1,337.7,400.8,337.3,400.7 M297.4,377.2c-0.1,0.2-0.2,0.4-0.4,0.6c0-0.2,0.1-0.5-0.6-1c-2.9-4.8-6-9.5-9.8-15.5
		C285.8,369.8,290.9,376.4,297.4,377.2 M414.2,202.3h-0.4c0,0,0.5,0.2,0.5,1.2c1.7,2.6,3.4,5.1,4.9,7.6c2.6-3.4,4.4-5.9,6.4-8.4
		c-0.5-1.1-1.5-3.1-2.2-4.9c-2.8,0.4-5.6,0.9-9.4,1.3c2.8,1.2,4.5,2.1,7.6,3.4C418.3,202.5,416.3,202.5,414.2,202.3 M505.9,363.9
		c1.6-1.3,3.1-2.6,4.6-3.9c0.4,0.2,0.7,0.6,1,0.9c-0.6,1.7-1.2,3.4-1.8,5.1c8.9-5.6,12.6-14.3,15-25.3c-2.3,2-3.5,2.8-4.6,3.9
		c-2.8,2.6-5.6,5.3-8.8,8.2c0,0-0.4,0.4-1.1,0.7c-2,3.3-4,6.5-6.6,10.4c-0.4,0.9-0.7,1.7-1,2.6c0.2,0.1,0.6,0.2,0.9,0.4
		C503.9,366,504.5,365.1,505.9,363.9 M378.7,247.7c0,5.7,0,11.4,0,17.2c0.1,0-0.6,0.2-1,0c-9.9-6.2-19.8-12.6-29.8-18.6
		c-5.5-3.2-11.5-5.7-17.4-8.2c-2.1-0.9-4.6-0.6-6.5-0.9c-0.4,2-0.7,4.2-1,6.2c-0.5,3.3-0.4,6.7-1.6,9.7c-2.4,6.1,3.8,7.2,6,10.3
		c3.5,5,8.7,9.2,13.6,13c6.7,5.1,13.9,9.5,22,14.9c-2.4,0.7-3.1,1.1-3.8,1.1c-18.7,1.1-36.1,4.8-50.6,18.1c-4.5,4-5,5.5-1.7,10.2
		c2.1,2.8,3.7,4.3,7.1,4.2c8.9-0.5,18-1,26.9-1.5c4.9-0.2,9.9-0.6,14.8-1.1c0.9-0.1,1.6-1.3,2.7-2.4c1,0.6,2.3,1.6,4.4,2.8
		c-3.4,4.2-6.7,7.7-9.4,11.7c-3.2,4.6-6,9.7-8.4,14.7c-1.1,2.3-0.6,5.4-1.6,7.8c-1.1,2.6-3.1,4.8-4.6,7.2c-0.4-0.1-0.6-0.4-1-0.5
		c0.1-1.1,0.1-2.2,0.2-3.4c-0.7-0.1-1.5-0.2-2.3-0.4c-0.6,3.5-2.6,7.7-1.5,10.6c1.2,3.2,5.1,5.6,8.2,8c1.3,1,3.4,1.2,5.1,1.1
		c2.2-0.1,5.1-0.4,6.2-1.7c5.6-7,10.6-14.4,16.1-21.7c4.4-5.7,9.2-11.1,13.8-16.8c0.7,2.7,0,4.5,0.2,6.2c1,8.8,2.3,17.6,3.4,26.3
		c0.4,3.2,0.9,6.4,1,9.5c0.1,4.3-0.1,8.6-0.2,14.1c1.5,0.4,4.6,2,7.8,2c4.4-0.1,8.7-1.6,13.1-2.2c3.1-0.5,6.6-3.2,6.5-5.7
		c-0.6-15.9-1.3-31.7-2-48.1c1.5-0.2,3.3-1.1,4.3-0.5c4.5,2.8,8.9,5.9,13.3,8.9c8.8,6.1,17.6,12.4,26.5,18.5c1.1,0.7,2.7,0.9,4,1
		c9.2,1.3,12.7-0.9,9.4-11.7c-2.9-9.7-10.2-16.9-18.6-22.6c-1.1-0.7-1.3-2.7-2.3-4.6c-4.4-2.8-9.5-6.1-15-9.7c1-1.2,1.3-2,1.8-2
		c10.4-0.2,20.8-0.9,31.1-0.7c13,0.2,17.9,0.2,20.5-12.1c1.2-5.6-2.9-14.2-7.7-14.3c-10.2-0.2-19.6-6.2-30.5-3.2
		c-3.9,1.1-9.2-2.4-13.8-3.9c2.4-2.6,4.8-5,7.2-7.3c1.5-1.3,3.4-2.2,4.9-3.7c8-7.3,15.2-15.7,24-21.8c4.9-3.4,5-6.6,4-10.6
		c-0.7-3.2-2.8-6.2-4.9-8.9c-2.6-3.5-6-4.4-10-2c-6.6,4.2-13.5,8-19.9,12.2c-2,1.3-3.9,3.4-4.5,5.6c-1.3,4.5-3.4,7.8-8.6,9.2
		c-0.6-1.5-1.1-2.8-2.2-5.3c-3.4,2.8-7,4.6-8.9,7.6c-2.7,4-5.3,6.7-10.4,5.3c0.4-2.1,0.9-4.3,1.1-6.4c1-8.7,2.6-17.4,2.6-26.1
		c0-2.9,0.7-6,0.1-9.1c-1.1-5.7-1.7-11.5-2.4-18c0.1-1.6,0.4-3.2,0.5-4.9c-0.5,0-1.1,0-1.6,0c-0.5,1-1.1,2-2.3,3.3
		c-1.8,0.4-3.5,0.5-5.4,1.1c-5,1.5-11.5-2.8-15,3.7c-1.8,3.3-2.8,7.1-4.2,10.6c-1.1,2.8-2.1,5.6-3.2,8.8c3.7,2.6,3.1,7.3,1.1,12
		c-0.6-0.7-1.2-1.3-1.7-1.8c-1.6,2.1-2.9,4-4.3,5.9c1.2,1.6,2.4,3.1,3.4,4.4C376.7,247.9,377.6,247.3,378.7,247.7 M312.1,213.4
		c2.3-3.9,4.6-7.8,7-11.7c-0.2-0.2-0.6-0.4-0.9-0.6c-4.2,2.3-8.3,4.5-12.4,6.7c2.2,2.7,0,2.8-2.9,4c-5.4,2.2-11.3,4.4-15,8.4
		c-4.3,4.5-6.6,11-9.3,16.9c-1.2,2.8-1.3,6.1-2,9.1c5.7-5.6,10-11.3,14.9-16.5c2.9-3.2,7.3-8.4,10-8
		C308.9,223.3,308.6,216.9,312.1,213.4 M271.3,302.8c-0.4-4.9-0.7-9.7-1.2-15c-0.9,1-2,1.6-2.2,2.6c-2.9,10,2.3,19.4,2.3,29.4
		c0,0.2,0.2,0.4,0.2,0.6c0.6,2.4,1.7,5,1.7,7.5c-0.1,7.1,2.9,17.7,7.5,23.7c0.4-0.5,1.1-1.1,1-1.5c-1.2-4.9-2.8-9.8-3.7-14.8
		C274.8,324.7,273.1,314.2,271.3,302.8 M507.1,273.5c-0.7,4-1.5,8.2-2.4,13.3c1.8-1.3,3.9-2.1,4.4-3.4c2.6-6.4,1.3-23.6-1.8-28
		C507.2,261.1,507.2,266.8,507.1,273.5 M383.7,420.8c-0.9-1-1.5-2.7-2.4-2.8c-2.3-0.5-5.4,0.7-6.8-0.4c-3.4-2.4-6.4-1.5-9.4-0.5
		C369.5,423.9,376.5,421.1,383.7,420.8 M479.8,392.1c-5.6,4.2-11.3,8.4-16.9,12.6C471.1,404.2,476.6,399.7,479.8,392.1 M517.1,329.1
		c0.5,1.7,1,3.4,1.5,5.1c0.4,0,0.7,0,1.1-0.1c0.5-5.5,1-11,1.6-16.5c-0.7-0.1-1.3-0.2-2.1-0.4C518.6,320.9,517.9,324.6,517.1,329.1
		 M491.9,227.1c3.2,6,6.4,12.1,9.5,18.1C502.4,237.3,497.4,232.5,491.9,227.1 M349.4,409.5c-1.2-1.6-2.4-3.1-4.3-5.5
		c-0.6,2.6-0.9,3.9-1.2,5.3c-0.4,1.3-1,2.6-1.7,4.8C345.3,412.4,347.3,411.3,349.4,409.5 M312.8,298.6c0.6,1,1.2,2,2,3.2
		c1-1.1,1.7-2,3.7-4.2C315.5,297.8,313.9,298,312.8,298.6 M351.6,213.1c0.5,0.1,0.9,0.2,1.3,0.2c0-0.2,0.1-0.5,0-0.6
		c-2.3-0.7-4.5-1.3-6.8-2.1c-0.1,0.7-0.1,1.3-0.2,2.1C347.6,212.7,349.3,212.7,351.6,213.1 M373.1,221.7c-0.1-1.1-0.4-2.2-0.5-3.4
		c-1.2,0.5-2.4,1-4.5,1.8C370.2,221,371.3,221.4,373.1,221.7 M388.9,419.9c-0.2-0.5-0.4-1.1-0.6-1.6c-0.5,0.5-1.1,1-1.6,1.5
		C387.2,420,387.8,420.2,388.9,419.9 M340.7,213.2c0.6-0.2,1.2-0.5,1.8-0.7c-0.1-0.4-0.2-0.6-0.5-1
		C341.6,211.8,341,212.2,340.7,213.2 M283.6,287.2c-0.9,0-1.6,0-2.4,0c0.1,0.5,0.2,0.9,0.4,1.3C282.3,288.3,283.2,288,283.6,287.2
		 M347.8,397.4c0.2-0.9,0.5-1.7,0.7-2.6c-0.4,0-0.9,0-1.2-0.1C347.3,395.4,347.3,396.2,347.8,397.4 M352.1,206.6
		c0.2,0.9,0.5,1.8,0.7,2.7c0.2-0.1,0.6-0.2,0.9-0.2C353.2,208,352.8,207.1,352.1,206.6 M412.9,212.9c0.1,0.4,0.1,0.9,0.2,1.2
		C413.3,213.8,413.4,213.4,412.9,212.9 M316.5,288.5c0.2,0.5,0.4,1.1,0.6,1.6c0.2-0.1,0.6-0.2,0.9-0.4
		C317.7,289.4,317.4,289,316.5,288.5 M313,290.5c0.1,0,0.4,0.1,0.5,0.1c0.1-0.1,0.4-0.4,0.2-0.5c-0.2-0.5-0.5-1-0.7-1.3
		C313,289.1,312.8,289.6,313,290.5 M419.1,195.4c-0.5-0.1-1.1-0.2-1.6-0.4c0,0.4,0,1,0.1,1C418.3,195.9,418.8,195.9,419.1,195.4
		 M399.8,417.2c-0.5-0.1-0.9-0.1-1.3-0.2C398.8,417.2,399.2,417.5,399.8,417.2 M424.5,207.6c0.1-0.1,0.2-0.2,0.4-0.4
		C424.8,207.2,424.6,207.3,424.5,207.6 M390.9,422.6c-0.2,0.1-0.5,0.1-0.6,0.2C390.4,422.8,390.6,422.8,390.9,422.6 M527.5,305
		C527.6,305,527.6,305.2,527.5,305 M405.2,424.4C405.2,424.4,405.3,424.6,405.2,424.4 M346.5,400.2
		C346.5,400.2,346.5,400.1,346.5,400.2 M416.1,220.3C416.1,220.3,416.2,220.2,416.1,220.3z"/>
	<path d="M253.8,297.2c1,3.8,1.8,8.1,2.1,12.4c0.2,3.1-0.2,6.2,0.9,9.7c0.6-1,1.3-2,2-2.8c0.6,0,1.2,0,1.8,0
		c0.6,8.3,1.1,16.8,1.5,25.6c-1.3-5.7-2.3-12-3.4-18.2c-3.7-0.6-6.1-1.2-5.3-6.4C254.3,310.9,253.4,304.2,253.8,297.2z"/>
	<path d="M530.6,294.3c-2.1-3.5-4.3-7-5.9-10.9c0.7-0.6,1-1,1.1-1.3c0,0,0-0.4,0.4-0.7c0.7-1.1,1.1-1.8,1.3-2.6
		c-0.6,0.2-1.3,0.5-2,0.7c-0.4-0.2-0.6-0.5-0.9-1.5c1-4.4,2.1-8.1,3.2-11.7c0,0,0.2,0.5,0.4,1.2c0.6,5.4,1.1,10,2,14.6
		c0.1,0.7,2.7,0.9,4.2,1.3c0,0,0,0.6,0,1.2c0.4,2.1,0.7,3.4,1.1,4.9c0,0.5,0,1.1-0.1,2.2c0,1.2,0,1.8,0,2.3
		c-1.1,0.1-2.2,0.1-3.9,0.2C530.6,294.3,530.6,294.3,530.6,294.3z"/>
	<path d="M527.8,266c-1.1,4-2.2,7.7-3.3,11.9c-1.8-1.2-3.4-2.8-5.3-4.5c1.7-2.6,3.3-5,5.1-8c0.1-0.5,0.4-0.6,0.4-0.6
		c0.5,0,1.1,0.1,2.2,0.2c0.6,0,1,0.1,1,0.1C527.8,265.3,527.8,265.4,527.8,266z"/>
	<path d="M696.8,323.5c3.4-4,7-8,10.4-12c0.7,0.7,1.5,1.5,2.2,2.2c-3.7,3.4-7.5,6.8-11.7,10.2C697.2,323.9,696.8,323.5,696.8,323.5z
		"/>
	<path d="M656.8,363.9c2.4-2.6,4.3-5,6.4-7.3c1.5-1.6,3.3-3.1,5.9-3.7c-4.4,4.8-8.9,9.4-13.3,14.2c-0.5-0.5-0.9-0.9-1.3-1.3
		C655.1,365.2,655.7,364.6,656.8,363.9z"/>
	<path d="M614.2,393.4c2.2-0.2,4.2-0.4,6.1-0.5c-1.6,5.1-3.7,6.1-8.9,3.7C612.2,395.2,613,394.3,614.2,393.4z"/>
	<path d="M623.9,387c1.3,0.2,2.4,0.5,3.7,0.7c-3.1,4-3.1,4-6.7,2c-0.2-0.4-0.2-0.4,0.2-0.4c1.1-0.6,1.8-1.3,2.4-2.1
		C623.5,387.2,623.8,387,623.9,387z"/>
	<path d="M511.1,381c0.6-1.6,1.6-3.2,3.1-5C513.6,377.6,512.6,379.3,511.1,381z"/>
	<path d="M528.1,264.8c-0.4,0.2-0.7,0.1-1,0.1c-0.2-1-0.2-1.8-0.1-3.3C527.5,262.4,528,263.5,528.1,264.8z"/>
	<path d="M257.4,275.1c-0.6-1-1-2.3-1.3-3.5c0.5-0.1,1-0.2,1.3-0.4c0.1,0.9,0.4,1.6,0.5,2.8C258,274.5,257.7,275,257.4,275.1z"/>
	<path d="M518.2,370.6c0.4-0.6,1.1-1.2,2.1-1.8C520.1,369.4,519.3,370.1,518.2,370.6z"/>
	<path d="M623.2,387.2c-0.4,0.6-1,1.3-2.1,2C621.3,388.6,622.1,388,623.2,387.2z"/>
	<path d="M538.4,312.6c-0.2-0.1-0.2-0.4-0.2-1C538.3,311.8,538.5,312.1,538.4,312.6z"/>
	<path d="M262.4,343.2l0.4-0.4c0,0,0,0.2-0.1,0.2C262.4,343.3,262.4,343.2,262.4,343.2z"/>
	<path d="M72.1,331.8c-0.6-0.2-0.9-0.6-1-1.8C71.6,330,72.1,330.9,72.1,331.8z"/>
	<path d="M697.3,324.1c-0.2,0.4-0.7,0.5-1.1,0.6c0-0.2,0-0.6,0.2-1.1C696.8,323.5,697.2,323.9,697.3,324.1z"/>
	<path d="M499.1,463.1c-0.4,0-1,0-1.2,0c0.6-0.6,1.5-1.2,2.3-1.7C500,461.9,499.6,462.5,499.1,463.1z"/>
	<path d="M498.8,466.5c-0.5,0.1-0.6-0.2-0.2-0.7C498.8,465.5,498.8,466.1,498.8,466.5z"/>
	<path d="M114.1,373.2L114.1,373.2z"/>
	<path d="M598.5,412.2C598.5,412.2,598.3,412.3,598.5,412.2z"/>
	<path d="M599.7,408.7C599.8,408.7,599.7,408.5,599.7,408.7z"/>
	<path d="M706.5,233.4c-0.5-0.2-0.7-0.9-1-1.5c0.5,0,1,0,1.6,0.4C707.2,232.8,707,232.9,706.5,233.4z"/>
	<path d="M65.1,364.6L65.1,364.6z"/>
	<path d="M684.3,408c-1.5,1.7-3.3,3.4-5.4,5C680.3,411.3,682.1,409.8,684.3,408z"/>
	<path d="M678.2,412.8c0.2,0.5,0,0.9-0.5,1.3C677.5,413.8,677.6,413.3,678.2,412.8z"/>
	<path d="M76.8,339.2c-0.5,0-0.9-0.2-1.1-0.4C76,338.8,76.4,338.9,76.8,339.2z"/>
	<path d="M686.9,241.8c0.1,0.2-0.1,0.5-0.7,1C686,242.5,686.3,242.2,686.9,241.8z"/>
	<path d="M86.6,364l-0.2,0.5c0,0,0-0.4,0.1-0.5C86.6,364,86.6,364,86.6,364z"/>
	<path d="M420.5,467.1c0.5-0.1,0.6,0.2,0.1,0.7C420.5,468,420.5,467.4,420.5,467.1z"/>
	<path d="M414.4,202.5c2,0,3.8,0,7.1,0c-3.1-1.3-4.8-2.2-7.6-3.4c3.9-0.6,6.6-1,9.4-1.3c0.9,1.7,1.7,3.7,2.2,4.9
		c-1.8,2.6-3.7,4.9-6.4,8.4c-1.6-2.3-3.2-5-4.9-8.1C414.4,202.5,414.4,202.5,414.4,202.5z"/>
	<path d="M378.7,240.3c0.4,1.8,0.4,3.7,0.1,5.9c-1.1,1.1-2.1,1.8-2.9,2.4c-1-1.2-2.2-2.7-3.4-4.4c1.3-1.8,2.7-3.8,4.3-5.9
		C377.1,238.9,377.7,239.6,378.7,240.3z"/>
	<path d="M349.4,409.9c-2.1,1.5-4.2,2.6-7.2,4.3c0.7-2.2,1.3-3.4,1.7-4.8c0.4-1.3,0.6-2.7,1.2-5.3C347,406.5,348.2,408,349.4,409.9z
		"/>
	<path d="M312.7,298.3c1.3-0.4,2.8-0.5,5.7-0.7c-1.8,2.2-2.7,3.1-3.7,4.2C314.1,300.6,313.5,299.7,312.7,298.3z"/>
	<path d="M337.4,400.3c-1.2,0.2-2.3,0.1-3.5-0.5c1.6-1.8,3.4-3.4,5.5-5c0.4-0.2,0.5-0.1,0.5-0.1C339,396.4,338.3,398.1,337.4,400.3z
		"/>
	<path d="M351.3,212.9c-2-0.1-3.7-0.1-5.4-0.1c0.1-0.7,0.1-1.3,0.2-2.1c2.3,0.6,4.5,1.3,6.8,2.1c0,0,0,0.4,0,0.6
		C352.5,213.2,352,213.2,351.3,212.9z"/>
	<path d="M408.1,206.2c-0.9-0.2-1.7-0.9-2.6-1.8c0.5-1.5,1-2.3,1.5-3.3c0.5,0,1.1,0,1.6,0C408.6,202.7,408.4,204.3,408.1,206.2z"/>
	<path d="M372.8,221.7c-1.5-0.4-2.6-0.7-4.6-1.6c2.1-0.9,3.3-1.3,4.5-1.8C372.8,219.5,372.9,220.6,372.8,221.7z"/>
	<path d="M350.9,399.6c0.2,1.3,0.4,2.6,0.6,3.9c-0.5,0.1-1,0.1-1.5,0.2c0-1.3,0-2.7,0.4-4.2C350.8,399.5,350.9,399.6,350.9,399.6z"
		/>
	<path d="M388.6,420.2c-0.9,0-1.3-0.1-2-0.4c0.5-0.5,1.1-1,1.6-1.5C388.6,418.9,388.7,419.4,388.6,420.2z"/>
	<path d="M340.5,212.8c0.4-0.6,1.1-1.1,1.7-1.5c0.1,0.4,0.2,0.6,0.5,1C342.1,212.7,341.5,212.9,340.5,212.8z"/>
	<path d="M279.9,293.2c0.2,1.3,0.6,2.7,0.9,4c-0.4,0.1-0.9,0.2-1.2,0.2c-0.4-1.2-0.6-2.4-1-4c0-0.4,0-0.4,0-0.4s0.5-0.1,0.9,0
		C279.8,293.1,279.9,293.2,279.9,293.2z"/>
	<path d="M283.9,287.4c-0.6,0.5-1.5,0.9-2.4,1.1c-0.1-0.5-0.2-0.9-0.4-1.3C281.9,287.2,282.8,287.2,283.9,287.4z"/>
	<path d="M347.6,397.2c-0.2-1-0.4-1.7-0.4-2.4c0.4,0,0.9,0,1.2,0.1C348.3,395.7,348.1,396.5,347.6,397.2z"/>
	<path d="M525.4,280c0.6-0.7,1.3-1,2-1.2c-0.4,0.7-0.7,1.5-1.5,2.3C525.6,281,525.6,280.7,525.4,280z"/>
	<path d="M352.2,206.3c0.6,0.7,1,1.7,1.3,2.7c-0.2,0.1-0.6,0.2-0.9,0.2C352.5,208.3,352.2,207.4,352.2,206.3z"/>
	<path d="M279.7,292.9c0-0.9,0.1-1.6,0.2-2.3c0.4,0,0.7,0.1,1,0.1c-0.1,0.7-0.2,1.5-0.7,2.3C279.9,293.2,279.8,293.1,279.7,292.9z"
		/>
	<path d="M413.1,212.9c0.1,0.4,0.1,0.9,0,1.2C413.1,213.8,413,213.3,413.1,212.9z"/>
	<path d="M504.9,364c-0.4,1.1-1,2-1.6,2.8c-0.2-0.1-0.6-0.2-0.9-0.4c0.4-0.9,0.7-1.7,1.3-2.9C504.3,363.4,504.5,363.6,504.9,364z"/>
	<path d="M316.8,288.7c0.6,0.4,1,0.9,1.2,1.2c-0.2,0.1-0.6,0.2-0.9,0.4C317,289.6,316.8,289.1,316.8,288.7z"/>
	<path d="M312.8,290.2c0-0.6,0.1-1.1,0.2-1.5c0.2,0.5,0.5,0.9,0.7,1.3c0,0.1-0.1,0.4-0.2,0.5C313.5,290.6,313.2,290.5,312.8,290.2z"
		/>
	<path d="M419.3,195.7c-0.5,0.2-1,0.4-1.6,0.2c-0.1,0-0.1-0.6-0.1-1C418.2,195.1,418.7,195.3,419.3,195.7z"/>
	<path d="M399.7,417.5c-0.5,0-0.9-0.2-1.1-0.4C399,417.1,399.3,417.2,399.7,417.5z"/>
	<path d="M376.5,220.9c-0.1,0.6-0.2,1.1-0.4,1.7c0-0.5-0.1-0.9,0.1-1.6C376.5,220.9,376.5,220.9,376.5,220.9z"/>
	<path d="M424.5,207.4c0.1-0.2,0.2-0.2,0.4-0.2C424.8,207.3,424.6,207.4,424.5,207.4z"/>
	<path d="M297.2,377.1c0,0.2-0.1,0.5-0.1,0.7C297.2,377.6,297.3,377.5,297.2,377.1L297.2,377.1z"/>
	<path d="M390.9,422.7c-0.2,0.1-0.5,0.1-0.6,0C390.4,422.7,390.6,422.6,390.9,422.7z"/>
	<path d="M278.6,293.1c-0.4-0.2-0.9-0.5-1.2-0.7c0.4,0.1,0.6,0.1,1.1,0.5C278.6,293.1,278.6,293.1,278.6,293.1z"/>
	<path d="M534.4,300.4c0.7,0.1,0.9,0.5,0.5,1.1c-0.6,0-1.1-0.2-1.5-0.4C533.5,300.9,533.8,300.8,534.4,300.4z"/>
	<path d="M530.6,294.3c-0.2,0.2-0.5,0.5-0.9,0.7c-0.1,0-0.2-0.1-0.5-0.1c0.2-0.2,0.5-0.4,1-0.6C530.6,294.3,530.6,294.3,530.6,294.3
		z"/>
	<path d="M527.6,305.2C527.6,305.2,527.6,305,527.6,305.2z"/>
	<path d="M525.4,282.1c0.2,0.2,0,0.6-0.6,1C524.6,282.8,524.8,282.4,525.4,282.1z"/>
	<path d="M339.8,394.5l0.4-0.5c0,0,0,0.5-0.1,0.5C339.9,394.7,339.8,394.6,339.8,394.5z"/>
	<path d="M524.3,265c-0.1-0.1-0.2-0.4-0.2-0.6c0.1,0,0.2,0,0.5,0.2C524.6,264.8,524.3,264.9,524.3,265z"/>
	<path d="M405.2,424.6C405.3,424.6,405.2,424.4,405.2,424.6z"/>
	<path d="M338.4,401.6c-0.2,0.1-0.6,0-1-0.5C337.7,400.8,337.9,401.1,338.4,401.6z"/>
	<path d="M491.9,403.4c-0.1-0.4-0.4-0.7-0.6-1.1c0.2,0.1,0.5,0.4,0.6,0.7C491.7,403.3,491.8,403.4,491.9,403.4z"/>
	<path d="M350.8,399.5l0.4-0.5c0,0,0,0.4-0.1,0.5C350.9,399.6,350.8,399.5,350.8,399.5z"/>
	<path d="M346.5,400.1C346.5,400.1,346.5,400.2,346.5,400.1z"/>
	<path d="M416.2,220.3C416.2,220.2,416.1,220.3,416.2,220.3z"/>
	<path d="M376.5,220.9c0.1-0.1,0.4-0.2,0.5-0.4c0,0.1-0.1,0.2-0.4,0.4C376.5,220.9,376.5,220.9,376.5,220.9z"/>
	<path d="M368,217.3c-0.2,0.1-0.5,0.2-0.6,0.4c0-0.1,0.1-0.2,0.4-0.5C367.9,217.2,368,217.3,368,217.3z"/>
	<path d="M367.9,217.2c0.1-0.1,0.4-0.2,0.6-0.4c0,0.1-0.1,0.2-0.2,0.5C368,217.3,367.9,217.2,367.9,217.2z"/>
	<path d="M414.4,202.5l-0.5-0.2c0,0,0.4,0,0.4,0.1C414.4,202.5,414.4,202.5,414.4,202.5z"/>
	<path d="M511.5,352.5c0,0.2-0.2,0.7-0.5,0.9C510.9,353.1,511.2,352.8,511.5,352.5z"/>
</g>
</svg>
