<?xml version="1.0" encoding="utf-8"?>
<!-- Generator: Adobe Illustrator 26.1.0, SVG Export Plug-In . SVG Version: 6.00 Build 0)  -->
<svg version="1.1" id="Camada_1" xmlns="http://www.w3.org/2000/svg" xmlns:xlink="http://www.w3.org/1999/xlink" x="0px" y="0px"
	 viewBox="0 0 1920 1080" style="enable-background:new 0 0 1920 1080;" xml:space="preserve">
<path d="M730.2,558.3c16,1.1,30.2,2.8,44.2,2.6c3.5,0,8.4-5.8,10-9.9c10.5-27,18.7-55.1,31-81.3c9.5-20.4,22.1-39.9,36.4-57.3
	c18-21.8,42.8-28.8,70.3-19c28.2,10.1,40.4,32,42.3,60.9c1.5,23-5.7,43.1-18.5,61.6c-24.3,35.3-57.4,59.5-96.2,76.8
	c-25.7,11.5-27.6,15.5-22.9,43.9c0.1,0.4,0.2,0.9,0.3,1.3c6.7,39.3,25.3,48.6,59.6,27.3c42.1-26,72.1-64.4,95.2-107.1
	c18.4-34,31-71.1,48.1-106c7.9-16.3,8.2-28.1-1.7-44.5c-15.7-25.8-17.1-56.2-14.5-85.9c1.8-20.2,17.1-34,38.2-37.3
	c18.7-2.9,34.8,5.7,43.2,24.4c11,24.5,10.4,50.4,8.1,76.5c-0.5,5.3-1.1,10.6-1.7,17.1c9.3,0,17.6,0.5,25.8-0.1
	c13.8-1,27.6-3.2,41.4-3.9c28.3-1.5,42.9,17.1,33.8,44c-3.8,11.3-10.6,21.6-16.4,32.1c-14,24.9-28.8,49.4-42.3,74.6
	c-10.2,19.2-15.4,40.1-14.1,62c0.8,13.4,5.8,16.2,18.5,11.6c0.4-0.2,0.9-0.3,1.2-0.5c43.2-29.3,79.1-65.4,91.3-117.5
	c7-30.1,6-62.1,9.4-93.2c0.8-6.9,4.2-18.5,8-19.2c11.3-2,23.9-1.2,35,1.8c3.6,1,5.9,12.2,6.2,18.9c1.6,37.1,2,74.2,3.6,111.3
	c0.6,13.3,2.9,26.6,5.2,39.8c0.8,4.9,3.9,9.3,7.7,17.9c5.7-11.7,10.1-19.7,13.6-28.1c30.6-72.4,60.7-145,91.5-217.4
	c9.6-22.5,36.4-26,52.3-6.8c3.1,3.8,2.8,12.9,0.7,18.2c-15.4,38.6-31,77.1-47.7,115.2c-27.4,62.6-55.5,124.9-83.8,187.1
	c-6.1,13.3-13,27.8-31.4,26.6c-19.9-1.3-32.9-12.8-39.9-31c-7-18.2-13.2-36.6-20.2-56.1c-12.8,14.6-23.6,28.9-36.5,40.8
	c-15,13.9-30.6,27.9-48.2,38c-43.2,24.8-89.5-2.6-91.2-52.2c-1.3-39.1,10.5-74.9,27.4-109.4c7.1-14.4,14.8-28.5,23.2-44.6
	c-11.9-2.2-23-5-34.2-5.9c-2.8-0.2-7.1,5.4-8.9,9.2c-20.6,42.1-38.6,85.7-61.7,126.3c-25.1,44.2-58.8,82-101.5,110.9
	c-18.2,12.3-38.8,17.9-60.7,19c-45.6,2.3-78.6-28.5-84.3-79c-0.9-8.3-1-16.8-1.4-25.2c-18.3-0.8-36-2.1-53.6-1.9
	c-3.3,0-8,5.8-9.5,9.9c-15.4,42.9-30.1,86-45.7,128.8c-2.8,7.6-7.8,15.7-14.1,20.4c-21.6,16.2-45.7,13.4-58.5-10.2
	c-17.6-32.4-33.4-66.2-45.5-101c-41.7-119.5-75-241.4-98.5-365.9c-1.8-9.7-8.9-21,8.5-25.2c22.2-5.4,37.5-1.4,41.6,14.5
	c5.1,19.4,7.3,39.6,12.5,59C526,405,542.5,463.5,558.6,522c8.5,31,17,62,25.6,93c7.8,28.1,20.2,54,37.4,80.4
	c2.4-5.8,4.2-9.1,5.3-12.7c6.9-21.7,13.4-43.5,20.4-65.2c4.4-13.6,8-25.3-3.3-39.2c-11.8-14.4-2.5-30.9,16.6-31.8
	c11.6-0.5,14.5-6.3,17.8-15.3c44.3-119.8,85.8-240.8,146.8-353.8c4.9-9,10.1-17.9,14.9-27c8.9-16.8,23.8-22.2,41.4-21.7
	c16.2,0.5,20.6,7.8,13.8,22.9c-16.4,36.2-34.5,71.8-49.2,108.6c-37.8,94.1-74.1,188.8-110.9,283.2
	C733.5,547.3,732.5,551.2,730.2,558.3z M836.7,538.2c37.9-15.1,64.4-37.7,75.5-74.5c2-6.6-3.2-15.3-5-23c-7.2,2.3-16.1,2.5-21.2,7.1
	C860.2,471.4,846.8,502.2,836.7,538.2z"/>
<path d="M1393.4,742.3c-13.9,0-27.8,0-41.8,0c0,0.7-0.1,1.5-0.1,2.2c16.4,1.3,32.9,2.6,49.3,3.9c0,1.3,0,2.5,0,3.8
	c-15.1,0.9-30.3,1.4-45.3,2.8c-11.6,1.1-24.8-5.3-34.5,7.3c-1.6,2.1-7.7,1-11.7,1.1c-29.9,0.1-59.8,0-91.9,0
	c3.8,1.7,5.6,2.5,7.4,3.4c0,1,0,2,0,2.9c-6.2,0.6-12.4,1.4-18.6,1.7c-132.8,6.2-264.6,21.2-393.6,53.8c-57,14.4-112.7,34.3-169,51.7
	c-6.8,2.1-13.6,4.6-20.5,6.1c-13.1,2.8-21.7-2.2-25-13.8c-3.6-12.7,0-18.7,13.8-24.4c113-46.4,230.9-73.9,351.5-92
	c110.3-16.5,221-25.4,332.5-21.8c29.8,1,59.6,4.6,89.4,7.1c2.8,0.2,5.6,1.3,8.4,2.1C1393.6,740.9,1393.5,741.6,1393.4,742.3z"/>
</svg>
