<?xml version="1.0" encoding="utf-8"?>
<!-- Generator: Adobe Illustrator 26.1.0, SVG Export Plug-In . SVG Version: 6.00 Build 0)  -->
<svg version="1.1" id="Camada_1" xmlns="http://www.w3.org/2000/svg" xmlns:xlink="http://www.w3.org/1999/xlink" x="0px" y="0px"
	 viewBox="0 0 1336 979" style="enable-background:new 0 0 1336 979;" xml:space="preserve">
<path d="M373.51,555.51c20.74,1.43,39.14,3.63,57.29,3.37c4.54,0,10.89-7.52,12.96-12.83c13.61-34.99,24.24-71.41,40.18-105.37
	c12.31-26.44,28.64-51.71,47.18-74.27c23.33-28.25,55.47-37.33,91.12-24.63c36.55,13.09,52.36,41.48,54.82,78.93
	c1.94,29.81-7.39,55.86-23.98,79.84c-31.5,45.75-74.4,77.12-124.68,99.54c-33.31,14.91-35.77,20.09-29.68,56.9
	c0.13,0.52,0.26,1.17,0.39,1.68c8.68,50.94,32.79,62.99,77.25,35.38c54.57-33.7,93.45-83.47,123.39-138.81
	c23.85-44.07,40.18-92.15,62.34-137.39c10.24-21.13,10.63-36.42-2.2-57.68c-20.35-33.44-22.16-72.84-18.79-111.33
	c2.33-26.18,22.16-44.07,49.51-48.34c24.24-3.76,45.1,7.39,55.99,31.62c14.26,31.75,13.48,65.32,10.5,99.15
	c-0.65,6.87-1.43,13.74-2.2,22.16c12.05,0,22.81,0.65,33.44-0.13c17.89-1.3,35.77-4.15,53.66-5.05
	c36.68-1.94,55.6,22.16,43.81,57.03c-4.93,14.65-13.74,28-21.26,41.6c-18.15,32.27-37.33,64.03-54.82,96.69
	c-13.22,24.89-19.96,51.97-18.27,80.36c1.04,17.37,7.52,21,23.98,15.03c0.52-0.26,1.17-0.39,1.56-0.65
	c55.99-37.98,102.52-84.76,118.33-152.29c9.07-39.01,7.78-80.49,12.18-120.8c1.04-8.94,5.44-23.98,10.37-24.89
	c14.65-2.59,30.98-1.56,45.36,2.33c4.67,1.3,7.65,15.81,8.04,24.5c2.07,48.09,2.59,96.17,4.67,144.26
	c0.78,17.24,3.76,34.48,6.74,51.58c1.04,6.35,5.05,12.05,9.98,23.2c7.39-15.16,13.09-25.53,17.63-36.42
	c39.66-93.84,78.67-187.93,118.59-281.77c12.44-29.16,47.18-33.7,67.79-8.81c4.02,4.93,3.63,16.72,0.91,23.59
	c-19.96,50.03-40.18,99.93-61.82,149.31c-35.51,81.14-71.93,161.88-108.61,242.5c-7.91,17.24-16.85,36.03-40.7,34.48
	c-25.79-1.68-42.64-16.59-51.71-40.18c-9.07-23.59-17.11-47.44-26.18-72.71c-16.59,18.92-30.59,37.46-47.31,52.88
	c-19.44,18.02-39.66,36.16-62.47,49.25c-55.99,32.14-116-3.37-118.2-67.66c-1.68-50.68,13.61-97.08,35.51-141.79
	c9.2-18.66,19.18-36.94,30.07-57.81c-15.42-2.85-29.81-6.48-44.33-7.65c-3.63-0.26-9.2,7-11.54,11.92
	c-26.7,54.57-50.03,111.08-79.97,163.7c-32.53,57.29-76.21,106.28-131.55,143.74c-23.59,15.94-50.29,23.2-78.67,24.63
	c-59.1,2.98-101.87-36.94-109.26-102.39c-1.17-10.76-1.3-21.77-1.81-32.66c-23.72-1.04-46.66-2.72-69.47-2.46
	c-4.28,0-10.37,7.52-12.31,12.83c-19.96,55.6-39.01,111.46-59.23,166.94c-3.63,9.85-10.11,20.35-18.27,26.44
	c-28,21-59.23,17.37-75.82-13.22c-22.81-41.99-43.29-85.8-58.97-130.91C80.85,537.11,37.69,379.11,7.23,217.75
	c-2.33-12.57-11.54-27.22,11.02-32.66c28.77-7,48.6-1.81,53.92,18.79c6.61,25.14,9.46,51.33,16.2,76.47
	c20.48,76.47,41.86,152.29,62.73,228.11c11.02,40.18,22.03,80.36,33.18,120.54c10.11,36.42,26.18,69.99,48.47,104.21
	c3.11-7.52,5.44-11.79,6.87-16.46c8.94-28.13,17.37-56.38,26.44-84.51c5.7-17.63,10.37-32.79-4.28-50.81
	c-15.29-18.66-3.24-40.05,21.52-41.22c15.03-0.65,18.79-8.17,23.07-19.83c57.42-155.27,111.21-312.1,190.27-458.56
	c6.35-11.66,13.09-23.2,19.31-34.99c11.54-21.77,30.85-28.77,53.66-28.13c21,0.65,26.7,10.11,17.89,29.68
	c-21.26,46.92-44.72,93.06-63.77,140.76c-48.99,121.96-96.04,244.7-143.74,367.05C377.78,541.25,376.49,546.31,373.51,555.51z
	 M511.54,529.46c49.12-19.57,83.47-48.86,97.86-96.56c2.59-8.55-4.15-19.83-6.48-29.81c-9.33,2.98-20.87,3.24-27.48,9.2
	C542,442.88,524.63,482.8,511.54,529.46z"/>
<path d="M1233.08,793.99c-18.02,0-36.03,0-54.18,0c0,0.91-0.13,1.94-0.13,2.85c21.26,1.68,42.64,3.37,63.9,5.05
	c0,1.68,0,3.24,0,4.93c-19.57,1.17-39.27,1.81-58.71,3.63c-15.03,1.43-32.14-6.87-44.72,9.46c-2.07,2.72-9.98,1.3-15.16,1.43
	c-38.75,0.13-77.51,0-119.11,0c4.93,2.2,7.26,3.24,9.59,4.41c0,1.3,0,2.59,0,3.76c-8.04,0.78-16.07,1.81-24.11,2.2
	c-172.12,8.04-342.95,27.48-510.14,69.73c-73.88,18.66-146.07,44.46-219.04,67.01c-8.81,2.72-17.63,5.96-26.57,7.91
	c-16.98,3.63-28.13-2.85-32.4-17.89c-4.67-16.46,0-24.24,17.89-31.62c146.46-60.14,299.27-95.78,455.58-119.24
	c142.96-21.39,286.44-32.92,430.95-28.25c38.62,1.3,77.25,5.96,115.87,9.2c3.63,0.26,7.26,1.68,10.89,2.72
	C1233.34,792.18,1233.21,793.09,1233.08,793.99z"/>
</svg>
